<svg width="623" height="623" viewBox="0 0 623 623" fill="none" xmlns="http://www.w3.org/2000/svg">
<path d="M511.993 389.898L528.628 389.562L536.826 389.412C539.555 389.412 542.259 389.412 544.988 389.412L544.427 389.961L544.365 376.03L544.988 376.641L528.49 376.566C522.983 376.566 517.488 376.429 511.993 376.367L512.33 376.03C512.33 378.31 512.218 380.603 512.168 382.921L511.993 389.898ZM511.993 389.898L511.807 383.008C511.807 380.678 511.669 378.323 511.645 375.968V375.632H511.993C517.488 375.632 522.983 375.432 528.49 375.432L544.988 375.357H545.611V375.993L545.536 389.923V390.484H544.988C542.196 390.484 539.418 390.484 536.639 390.422L528.304 390.247L511.993 389.898Z" fill="#EBEBEB"/>
<path d="M530.398 407.441L547.032 407.105L555.23 406.955C557.959 406.955 560.676 406.955 563.392 406.893L562.831 407.441V393.511L563.454 394.121L546.957 394.047C541.45 394.047 535.955 393.91 530.46 393.847L530.796 393.511C530.796 395.791 530.684 398.084 530.634 400.401L530.398 407.441ZM530.398 407.441L530.223 400.551C530.161 398.221 530.074 395.866 530.049 393.511V393.175H530.398C535.893 393.112 541.387 392.975 546.895 392.975L563.392 392.9H564.015V393.536L563.94 407.441V408.002H563.392C560.613 408.002 557.822 408.002 555.044 407.94L546.745 407.79L530.398 407.441Z" fill="#EBEBEB"/>
<path d="M493.516 407.492H526.51V393.549H493.516V407.492Z" fill="#EBEBEB"/>
<path d="M59.6089 413.872L76.2056 413.523L84.3794 413.386C87.0956 413.386 89.7995 413.386 92.5033 413.311L91.955 413.872L91.8803 399.967L92.5033 400.59L76.0062 400.515C70.5238 400.515 65.0414 400.365 59.559 400.303L59.8955 399.967C59.8955 402.247 59.7958 404.527 59.7335 406.845L59.6089 413.872ZM59.6089 413.872L59.4344 406.994C59.3721 404.677 59.2974 402.322 59.2725 399.967V399.63H59.6089C65.0913 399.568 70.5737 399.431 76.0561 399.419L92.5033 399.344H93.1263V399.967V413.872V414.433H92.578C89.8119 414.433 87.0333 414.433 84.2672 414.371L75.9938 414.221L59.6089 413.872Z" fill="#EBEBEB"/>
<path d="M77.962 431.391H110.856V417.485H77.962V431.391Z" fill="#EBEBEB"/>
<path d="M160.896 249.338L177.543 249.001L185.741 248.852C188.47 248.852 191.174 248.852 193.903 248.789L193.342 249.338V235.407L193.965 236.018L177.455 235.943C171.96 235.943 166.466 235.806 160.958 235.744L161.307 235.407C161.307 237.688 161.195 239.98 161.145 242.298L160.896 249.338ZM160.896 249.338L160.722 242.447C160.722 240.117 160.584 237.762 160.56 235.407V235.071H160.896C166.403 235.009 171.898 234.872 177.393 234.872L193.903 234.797H194.526V235.432L194.463 249.363V249.923H193.915C191.124 249.923 188.345 249.923 185.567 249.861L177.268 249.711L160.896 249.338Z" fill="#EBEBEB"/>
<path d="M77.8497 76.1797H110.844V62.2369H77.8497V76.1797Z" fill="#EBEBEB"/>
<path d="M59.4592 93.7611L76.0933 93.4495L84.292 93.3125C87.0208 93.3125 89.7246 93.3125 92.4533 93.3125L91.8926 93.8607V79.918L92.5156 80.541L76.0061 80.3666C70.4988 80.3666 65.0039 80.2295 59.5091 80.1547L59.8455 79.8183C59.8455 82.0985 59.7334 84.3911 59.6835 86.7211L59.4592 93.7611ZM59.4592 93.7611L59.2723 86.8707C59.2723 84.5407 59.1353 82.1857 59.1104 79.8183V79.4819H59.4592C64.9541 79.4819 70.449 79.2825 75.9563 79.2701L92.4533 79.1953H93.0763V79.8183L93.0015 93.7611V94.3217H92.4533C89.6623 94.3217 86.8837 94.3217 84.1051 94.247L75.8068 94.1099L59.4592 93.7611Z" fill="#EBEBEB"/>
<path d="M511.993 76.181L528.628 75.8321L536.826 75.695C539.555 75.695 542.259 75.695 544.988 75.695L544.427 76.2433L544.365 62.3005L544.988 62.9235L528.49 62.8488C522.983 62.8488 517.488 62.7117 511.993 62.637L512.33 62.3005C512.33 64.5807 512.218 66.8734 512.168 69.2034L511.993 76.181ZM511.993 76.181L511.807 69.2906C511.807 66.9606 511.669 64.6056 511.645 62.2382V61.9018H511.993C517.488 61.9018 522.983 61.7025 528.49 61.69L544.988 61.6152H545.611V62.3005L545.536 76.2433V76.804H544.988C542.196 76.804 539.418 76.804 536.639 76.7292L528.304 76.5299L511.993 76.181Z" fill="#EBEBEB"/>
<path d="M459.836 250.533H492.83V236.59H459.836V250.533Z" fill="#EBEBEB"/>
<path d="M100.465 0.933594H99.2188V158.864H100.465V0.933594Z" fill="#C7C7C7"/>
<path d="M144.287 201.702L140.711 209.565H58.961L55.3975 201.702L90.1982 177.617H109.486L144.287 201.702Z" fill="#EBEBEB"/>
<path d="M111.903 154.404L109.486 177.617H90.1975L87.7803 154.404H111.903Z" fill="#DBDBDB"/>
<path d="M144.287 201.703L140.711 209.565H58.9483L55.3848 201.703H144.287Z" fill="#DBDBDB"/>
<path d="M178.028 0H176.782V103.916H178.028V0Z" fill="#C7C7C7"/>
<path d="M221.85 146.766L218.274 154.628H136.512L132.948 146.766L167.761 122.668H187.037L221.85 146.766Z" fill="#EBEBEB"/>
<path d="M189.455 99.4688L187.038 122.669H167.762L165.345 99.4688H189.455Z" fill="#DBDBDB"/>
<path d="M221.838 146.766L218.274 154.628H136.512L132.948 146.766H221.838Z" fill="#DBDBDB"/>
<path d="M428.275 151.463L567.603 151.463V143.189L428.275 143.189V151.463Z" fill="#EBEBEB"/>
<path d="M557.037 151.463H548.764V178.825H557.037V151.463Z" fill="#EBEBEB"/>
<path d="M557.037 151.463H548.764V159.923H557.037V151.463Z" fill="#DBDBDB"/>
<path d="M447.127 151.463H438.854V178.825H447.127V151.463Z" fill="#EBEBEB"/>
<path d="M447.127 151.463H438.854V159.923H447.127V151.463Z" fill="#DBDBDB"/>
<path d="M532.391 143.203V90.4727H519.108V143.203H532.391Z" fill="#C7C7C7"/>
<path d="M532.403 93.4384V87.6445H519.121V93.4384H532.403Z" fill="#DBDBDB"/>
<path d="M532.391 103.019V100.863H519.108V103.019H532.391Z" fill="#DBDBDB"/>
<path d="M532.391 136.288V130.494H517.464V136.288H532.391Z" fill="#DBDBDB"/>
<path d="M519.121 143.19V81.6875H509.838V143.19H519.121Z" fill="#DBDBDB"/>
<path d="M517.302 111.13V87.4688H511.732V111.13H517.302Z" fill="#EBEBEB"/>
<path d="M450.359 143.23L494.098 99.9922L487.572 93.3906L443.833 136.628L450.359 143.23Z" fill="#C7C7C7"/>
<path d="M459.311 131.758L476.139 115.123L472.223 111.162L455.396 127.797L459.311 131.758Z" fill="#DBDBDB"/>
<path d="M509.851 143.191V96.4785H494.089V143.191H509.851Z" fill="#A6A6A6"/>
<path d="M509.838 138.243V133.895H494.076V138.243H509.838Z" fill="#C7C7C7"/>
<path d="M509.838 131.042V129.348H494.076V131.042H509.838Z" fill="#C7C7C7"/>
<path d="M543.293 143.202V99.293H532.403V143.202H543.293Z" fill="#A6A6A6"/>
<path d="M543.281 138.542V134.455H532.391V138.542H543.281Z" fill="#C7C7C7"/>
<path d="M543.281 112.438V108.352H532.391V112.438H543.281Z" fill="#C7C7C7"/>
<path d="M543.281 116.838V115.256H532.391V116.838H543.281Z" fill="#C7C7C7"/>
<path d="M60.2317 548.515H292.847L297.694 453.059H55.3848L60.2317 548.515Z" fill="#EBEBEB"/>
<path d="M281.833 496.755H184.57L182.751 463.611H283.951L281.833 496.755ZM185.654 495.584H280.724L282.705 464.758H183.997L185.654 495.584Z" fill="#DBDBDB"/>
<path d="M280.039 534.883H188.383L186.9 504.979H281.908L280.039 534.883ZM189.505 533.699H278.93L280.649 506.137H188.146L189.505 533.699Z" fill="#DBDBDB"/>
<path d="M242.571 483.784H226.224L225.189 475.785H243.593L242.571 483.784ZM227.258 482.601H241.537L242.26 476.956H226.523L227.258 482.601Z" fill="#DBDBDB"/>
<path d="M242.571 523.917H226.224L225.189 515.918H243.593L242.571 523.917ZM227.258 522.746H241.537L242.26 517.102H226.523L227.258 522.746Z" fill="#DBDBDB"/>
<path d="M167.437 496.755H70.1746L68.3555 463.611H169.556L167.437 496.755ZM71.296 495.584H166.328L168.31 464.758H69.589L71.296 495.584Z" fill="#DBDBDB"/>
<path d="M165.643 534.883H73.9876L72.5049 504.979H167.512L165.643 534.883ZM75.109 533.699H164.534L166.254 506.137H73.7384L75.109 533.699Z" fill="#DBDBDB"/>
<path d="M128.176 483.784H111.828L110.794 475.785H129.197L128.176 483.784ZM112.862 482.601H127.092L127.814 476.956H112.14L112.862 482.601Z" fill="#DBDBDB"/>
<path d="M128.176 523.917H111.828L110.794 515.918H129.197L128.176 523.917ZM112.862 522.746H127.092L127.814 517.102H112.14L112.862 522.746Z" fill="#DBDBDB"/>
<path d="M81.0897 548.514L79.6319 558.905L76.6913 579.801H70.9473V548.514H81.0897Z" fill="#EBEBEB"/>
<path d="M81.0897 548.514L79.6319 558.905H70.9473V548.514H81.0897Z" fill="#DBDBDB"/>
<path d="M271.989 548.514L273.46 558.905L276.388 579.801H282.132V548.514H271.989Z" fill="#EBEBEB"/>
<path d="M271.989 548.514L273.46 558.905H282.132V548.514H271.989Z" fill="#DBDBDB"/>
<path d="M144.1 297.469C144.053 301.431 142.832 305.291 140.592 308.559C138.351 311.828 135.192 314.358 131.513 315.831C127.835 317.304 123.802 317.653 119.925 316.834C116.048 316.015 112.501 314.065 109.732 311.23C106.964 308.395 105.098 304.803 104.371 300.908C103.643 297.012 104.088 292.989 105.647 289.346C107.206 285.703 109.811 282.605 113.131 280.442C116.452 278.28 120.339 277.15 124.301 277.197C126.932 277.228 129.532 277.777 131.951 278.812C134.37 279.848 136.561 281.35 138.4 283.232C140.238 285.115 141.688 287.341 142.666 289.784C143.644 292.226 144.132 294.838 144.1 297.469Z" fill="#EBEBEB"/>
<path d="M158.03 352.905L157.943 359.87H88.6904L88.7901 352.095C89.0323 343.004 92.8409 334.374 99.3933 328.068C105.946 321.762 114.716 318.287 123.809 318.393C132.902 318.499 141.589 322.179 147.992 328.636C154.395 335.094 158.001 343.811 158.03 352.905Z" fill="#EBEBEB"/>
<path d="M171.899 277.197H167.974V304.086H171.899V277.197Z" fill="#EBEBEB"/>
<path d="M156.498 288.673V292.598H183.387V288.673H156.498Z" fill="#EBEBEB"/>
<path d="M55.3848 579.178L119.417 578.879L183.449 578.767L311.5 578.555L439.551 578.767L503.583 578.879L567.615 579.178L503.583 579.489L439.551 579.601L311.5 579.801L183.449 579.601L119.417 579.489L55.3848 579.178Z" fill="#263238"/>
<path d="M168.833 436.499C163.849 431.664 157.532 425.833 149.994 427.914C142.904 429.87 140.188 437.62 138.917 444.112C137.285 452.435 136.001 460.821 134.68 469.194C133.36 477.567 132.101 486.102 130.942 494.575C130.253 499.359 129.576 504.14 128.911 508.916C128.575 511.309 128.251 513.701 127.915 516.093C127.578 518.486 127.204 520.778 127.067 523.146C127.067 523.893 128.214 524.005 128.313 523.283C129.223 519.295 129.559 515.159 130.195 511.109C130.83 507.06 131.366 502.96 131.964 498.898C133.152 490.808 134.361 482.725 135.59 474.651C136.819 466.577 138.065 458.499 139.328 450.417C140.424 443.576 140.935 435.066 147.016 430.555C148.659 429.427 150.563 428.737 152.547 428.551C154.532 428.366 156.531 428.691 158.354 429.496C162.354 431.016 165.544 433.87 168.671 436.698C168.684 436.709 168.699 436.717 168.716 436.722C168.732 436.726 168.749 436.728 168.766 436.726C168.782 436.724 168.799 436.719 168.813 436.711C168.828 436.703 168.841 436.693 168.852 436.679C168.863 436.666 168.871 436.651 168.875 436.635C168.88 436.619 168.882 436.602 168.88 436.585C168.878 436.568 168.873 436.552 168.865 436.537C168.857 436.522 168.846 436.509 168.833 436.499Z" fill="#263238"/>
<path d="M162.079 431.566C162.079 431.566 152.012 427.94 147.028 435.304C142.044 442.668 148 461.37 193.902 471.924C192.55 457.579 188.815 443.56 182.85 430.444C173.019 408.976 155.488 417.1 162.079 431.566Z" fill="url(#paint0_linear_124_3075)"/>
<path d="M191.261 468.858C190.57 467.566 189.8 466.317 188.956 465.12C188.183 463.936 187.411 462.752 186.626 461.581L184.832 458.952C184.832 458.74 184.832 458.528 184.919 458.304L185.068 457.058C185.18 456.198 185.305 455.339 185.43 454.479C185.554 453.619 185.704 452.772 185.866 451.925C185.975 451.006 186.175 450.1 186.464 449.221C186.464 449.084 186.289 449.022 186.264 449.221C186.171 449.738 186.034 450.247 185.853 450.741L185.554 451.9C185.33 452.772 185.118 453.644 184.919 454.529C184.719 455.413 184.582 456.149 184.445 456.959C184.383 457.357 184.321 457.744 184.271 458.142C183.449 456.971 182.614 455.812 181.779 454.678C179.287 451.476 176.795 448.386 174.104 445.371C174.11 445.342 174.11 445.312 174.104 445.283C174.34 440.461 174.228 435.689 175.35 430.954C175.35 430.817 175.175 430.755 175.15 430.88C173.934 435.345 173.355 439.959 173.431 444.586C172.484 443.514 171.512 442.455 170.528 441.408C168.293 439.008 166.017 436.645 163.699 434.319C163.6 434.219 163.45 434.319 163.55 434.456C167.412 438.617 171.088 442.953 174.664 447.377C171.865 447.325 169.066 447.429 166.279 447.688C163.164 447.913 160.049 448.311 156.983 448.735C156.961 448.743 156.942 448.757 156.929 448.776C156.915 448.795 156.908 448.818 156.908 448.841C156.908 448.864 156.915 448.887 156.929 448.906C156.942 448.925 156.961 448.939 156.983 448.947C160.06 448.5 163.159 448.221 166.266 448.112C169.257 447.987 172.235 448.112 175.225 448.112C177.156 450.504 179.075 452.922 180.957 455.351H180.52C179.823 455.351 179.125 455.351 178.415 455.351C177.019 455.351 175.624 455.476 174.241 455.588C171.388 455.815 168.553 456.232 165.755 456.834C165.631 456.834 165.668 457.046 165.755 457.033C168.571 456.722 171.4 456.448 174.228 456.348C175.586 456.348 176.944 456.348 178.29 456.348H180.408C180.798 456.403 181.195 456.364 181.567 456.236L185.305 461.058C186.277 462.304 187.236 463.637 188.183 464.933C189.13 466.229 190.015 467.724 191.087 468.97C191.101 468.993 191.125 469.009 191.152 469.015C191.179 469.021 191.207 469.016 191.23 469.001C191.253 468.986 191.269 468.963 191.275 468.936C191.281 468.909 191.276 468.881 191.261 468.858Z" fill="#263238"/>
<path d="M166.478 441.995C164.851 441.781 163.209 441.697 161.568 441.746C159.924 441.746 158.292 441.746 156.659 441.858C156.633 441.858 156.607 441.868 156.589 441.887C156.57 441.906 156.56 441.931 156.56 441.957C156.56 441.984 156.57 442.009 156.589 442.028C156.607 442.047 156.633 442.057 156.659 442.057C158.316 441.945 159.974 441.908 161.643 441.933C163.313 441.957 164.858 442.119 166.453 442.07C166.528 442.07 166.528 441.995 166.478 441.995Z" fill="#263238"/>
<path d="M180.882 445.683C181.069 444.126 181.268 442.543 181.592 440.998C181.592 440.972 181.582 440.946 181.563 440.928C181.544 440.909 181.519 440.898 181.493 440.898C181.466 440.898 181.441 440.909 181.422 440.928C181.403 440.946 181.393 440.972 181.393 440.998C181.156 442.543 180.857 444.076 180.633 445.621C180.521 446.393 180.409 447.166 180.321 447.938C180.184 448.661 180.122 449.396 180.134 450.131C180.143 450.159 180.16 450.184 180.184 450.201C180.208 450.218 180.236 450.228 180.265 450.228C180.294 450.228 180.323 450.218 180.346 450.201C180.37 450.184 180.387 450.159 180.396 450.131C180.538 449.413 180.617 448.683 180.633 447.951C180.67 447.178 180.795 446.431 180.882 445.683Z" fill="#263238"/>
<path d="M177.867 428.326C177.455 429.846 177.057 431.391 176.783 432.949C176.633 433.734 176.521 434.519 176.409 435.316C176.266 436.08 176.216 436.858 176.259 437.634C176.259 437.634 176.359 437.634 176.371 437.634C176.56 436.907 176.681 436.165 176.733 435.416C176.845 434.656 176.957 433.896 177.094 433.136C177.368 431.541 177.655 429.958 178.053 428.376C178.091 428.264 177.892 428.189 177.867 428.326Z" fill="#263238"/>
<path d="M118.096 521.401C117.847 518.51 117.568 515.623 117.261 512.741C116.663 507.026 115.974 501.319 115.193 495.621C114.433 489.939 113.698 484.245 112.788 478.588C112.447 475.96 111.859 473.369 111.031 470.851C110.736 469.77 110.197 468.771 109.456 467.931C108.716 467.091 107.792 466.432 106.757 466.004C101.35 464.147 97.7114 469.742 95.5433 473.704C95.5397 473.727 95.5434 473.75 95.5538 473.771C95.5642 473.792 95.5808 473.809 95.6014 473.82C95.6219 473.831 95.6454 473.835 95.6684 473.832C95.6915 473.829 95.7131 473.819 95.7302 473.804C96.9762 471.935 100.639 466.664 104.739 466.901C107.492 467.075 109.723 469.019 110.969 475.897C114.271 493.017 117.199 527.768 117.585 530.036C117.772 531.282 118.619 531.194 118.632 529.898C118.682 527.058 118.37 524.229 118.096 521.401Z" fill="#263238"/>
<path d="M96.989 471.587C96.989 471.587 101.711 454.928 91.2698 463.251C73.913 477.132 73.29 507.297 73.29 507.297C73.29 507.297 104.166 489.367 108.004 477.543C113.723 459.924 96.989 471.587 96.989 471.587Z" fill="url(#paint1_linear_124_3075)"/>
<path d="M102.832 479.773C100.34 480.259 97.9478 480.583 95.5057 480.932L92.0293 481.418C91.2444 481.53 90.4594 481.605 89.6744 481.704C91.967 478.527 94.2846 475.375 96.49 472.148C96.5772 472.023 96.3903 471.886 96.2907 471.998C94.4597 473.88 92.7375 475.864 91.1322 477.942C90.6712 476.696 90.2102 475.375 89.7616 474.079C89.2383 472.584 88.6651 471.101 88.2913 469.568C88.2913 469.542 88.2808 469.517 88.2621 469.498C88.2435 469.479 88.2181 469.469 88.1917 469.469C88.1652 469.469 88.1399 469.479 88.1212 469.498C88.1025 469.517 88.092 469.542 88.092 469.568C88.5156 471.101 88.8147 472.659 89.2258 474.191C89.637 475.724 90.0607 477.132 90.584 478.565C89.4626 480.035 88.3786 481.542 87.3195 483.063C86.7837 481.555 86.0735 480.097 85.6623 478.565C85.654 478.538 85.6356 478.516 85.6111 478.503C85.5865 478.49 85.5579 478.488 85.5314 478.496C85.505 478.504 85.4829 478.523 85.4701 478.547C85.4572 478.572 85.4547 478.6 85.4629 478.627C86.0236 480.321 86.3102 482.078 86.8335 483.785C86.1233 484.819 85.4131 485.854 84.7402 486.9C83.4942 488.819 82.323 490.788 81.1642 492.756C81.0763 492.798 81.0036 492.866 80.9566 492.951C80.9097 493.036 80.8907 493.134 80.9026 493.23C78.9463 496.594 77.0898 500.021 75.2582 503.472C75.2546 503.495 75.2582 503.519 75.2686 503.539C75.279 503.56 75.2957 503.577 75.3162 503.588C75.3367 503.599 75.3602 503.604 75.3833 503.601C75.4064 503.598 75.428 503.588 75.4451 503.572C77.2767 500.17 79.3201 496.843 81.4383 493.604C81.7667 493.502 82.105 493.435 82.4476 493.404L83.5067 493.18C84.3041 493.006 85.1016 492.794 85.8866 492.595C87.4565 492.208 89.0016 491.847 90.5964 491.573C90.721 491.573 90.6712 491.348 90.5964 491.373C88.7274 491.722 86.8584 491.934 84.9645 492.158C84.0799 492.258 83.1827 492.37 82.2981 492.52H82.1735C83.2824 490.838 84.4038 489.156 85.5501 487.536C86.6965 485.916 87.8179 484.309 88.9766 482.701C90.0482 482.552 91.1073 482.278 92.1664 482.066L95.7549 481.368C98.1472 480.895 100.527 480.359 102.932 479.973C103.019 479.948 102.957 479.711 102.832 479.773Z" fill="#263238"/>
<path d="M84.2798 481.405C84.1303 480.969 84.0057 480.533 83.8562 480.085C83.574 479.167 83.341 478.236 83.1584 477.294C83.1584 477.157 82.9217 477.219 82.9591 477.356C83.1584 478.29 83.3827 479.225 83.5945 480.172C83.7901 481.113 84.0567 482.037 84.392 482.938C84.4069 482.986 84.4401 483.026 84.4845 483.049C84.5289 483.073 84.5808 483.077 84.6287 483.063C84.6766 483.048 84.7167 483.014 84.7401 482.97C84.7634 482.926 84.7682 482.874 84.7533 482.826C84.6163 482.352 84.4294 481.879 84.2798 481.405Z" fill="#263238"/>
<path d="M105.985 475.973C104.577 476.185 103.156 476.284 101.748 476.409C100.34 476.534 98.9199 476.733 97.4994 476.945C97.4247 476.945 97.4247 477.069 97.4994 477.069C98.9323 476.97 100.34 476.858 101.748 476.671C103.156 476.484 104.577 476.272 105.997 476.185C106.134 476.11 106.122 475.886 105.985 475.973Z" fill="#263238"/>
<path d="M140.798 500.307C140.25 488.034 139.465 475.786 138.231 463.563C137.621 457.482 136.985 451.389 136.076 445.334C135.317 439.382 134.143 433.491 132.562 427.703C131.486 423.189 129.488 418.947 126.694 415.243C125.319 413.443 123.508 412.023 121.433 411.117C119.358 410.21 117.086 409.846 114.832 410.059C109.461 410.72 105.138 414.109 101.4 417.785C97.2007 421.909 93.3506 426.407 89.4755 430.818C88.4912 431.939 87.5068 433.061 86.5474 434.182C86.4602 434.294 86.5474 434.431 86.6969 434.332C90.4972 429.971 94.447 425.722 98.5713 421.672C102.384 417.934 106.321 413.822 111.604 412.277C114.061 411.498 116.69 411.438 119.18 412.103C121.16 412.733 122.945 413.861 124.364 415.38C127.329 418.47 129.011 422.669 130.195 426.718C133.497 438.007 134.68 449.832 135.901 461.469C137.147 473.306 137.982 485.143 138.58 497.055C139.178 508.967 139.639 520.953 140.798 532.865C140.935 534.335 141.122 535.806 141.309 537.264C141.434 538.248 142.966 538.26 142.892 537.264C141.945 524.953 141.371 512.63 140.798 500.307Z" fill="#263238"/>
<path d="M100.739 419.129C100.739 419.129 107.754 406.171 99.4932 402.009C91.2322 397.848 63.5461 428.773 55.3848 474.003C55.3848 474.003 100.141 454.204 115.342 434.48C130.543 414.756 113.311 410.395 100.739 419.129Z" fill="url(#paint2_linear_124_3075)"/>
<path d="M107.318 429.684C102.334 429.684 97.275 429.298 92.2411 429.336C93.1881 428.251 94.1226 427.167 95.082 426.096C96.4863 424.661 97.7973 423.138 99.0069 421.536C99.0817 421.423 98.9322 421.274 98.8325 421.361C97.4728 422.54 96.1987 423.814 95.0197 425.174C93.7737 426.52 92.5277 427.853 91.2817 429.211C89.3504 431.292 87.469 433.397 85.5875 435.516V432.264C85.5875 430.557 85.5875 428.862 85.5875 427.155C85.5875 423.691 85.5875 420.215 85.8616 416.763C85.8616 416.639 85.6623 416.639 85.6498 416.763C85.4131 420.227 85.0517 423.679 84.8773 427.155C84.7901 428.862 84.7527 430.569 84.7278 432.276C84.7278 433.161 84.7278 434.033 84.7278 434.918C84.7278 435.391 84.7278 435.902 84.7278 436.4L83.8306 437.385C79.8185 441.97 76.0058 446.717 72.2927 451.539C72.2927 451.278 72.2927 451.003 72.2179 450.742C72.2179 450.206 72.1058 449.683 72.0435 449.147C71.9189 447.988 71.7569 446.842 71.5825 445.695C71.408 444.549 71.2585 443.54 71.0716 442.468C70.8847 441.397 70.5732 439.976 70.486 438.805C70.486 438.656 70.2492 438.693 70.2742 438.805C70.4923 440.041 70.6338 441.29 70.6978 442.543C70.8099 443.652 70.9096 444.761 71.0093 445.87C71.109 446.979 71.2087 448.088 71.3208 449.197C71.3208 449.72 71.4205 450.256 71.4828 450.792C71.4828 451.053 71.5451 451.315 71.5825 451.589C71.6009 451.811 71.6737 452.025 71.7943 452.212L69.8754 454.704C67.3834 458.068 64.8914 461.457 62.3994 464.847C62.3247 464.959 62.3994 465.096 62.549 464.996C64.9039 461.918 67.3336 458.891 69.8007 455.9C71.6323 455.975 73.5387 455.838 75.3578 455.813C77.177 455.788 79.2329 455.813 81.1767 455.813C81.3137 455.813 81.3013 455.601 81.1767 455.614C79.2329 455.614 77.2891 455.676 75.3454 455.676C73.5885 455.676 71.7818 455.601 70.0125 455.676C72.1681 453.047 74.361 450.443 76.554 447.826L78.9588 444.985C79.702 445.085 80.4534 445.11 81.2016 445.06H83.8556C85.5127 445.06 87.1699 445.06 88.8396 444.985C92.2536 444.985 95.6801 444.823 99.0941 444.811C99.2312 444.811 99.2187 444.611 99.0941 444.599C95.6801 444.599 92.2536 444.412 88.8396 444.325L83.8556 444.213H81.2016C80.7032 444.213 80.1799 444.213 79.6815 444.213L85.3134 437.522C85.3585 437.497 85.3937 437.457 85.4131 437.41C87.2571 435.242 89.0888 433.074 90.9453 430.93C91.1945 430.631 91.4562 430.345 91.7054 430.058C96.9261 430.22 102.122 429.871 107.343 429.971C107.455 429.871 107.455 429.684 107.318 429.684Z" fill="#263238"/>
<path d="M104.751 438.592H103.505C103.393 438.592 103.393 438.779 103.505 438.779H104.751C104.888 438.779 104.888 438.592 104.751 438.592Z" fill="#263238"/>
<path d="M102.047 438.593L97.1877 438.493L94.7704 438.406C94.0216 438.313 93.264 438.313 92.5152 438.406C92.4954 438.406 92.4763 438.414 92.4623 438.428C92.4483 438.442 92.4404 438.461 92.4404 438.481C92.4404 438.501 92.4483 438.52 92.4623 438.534C92.4763 438.548 92.4954 438.556 92.5152 438.556C93.2521 438.71 94.0065 438.764 94.758 438.718H97.1752C98.7826 438.718 100.402 438.718 102.01 438.718C102.03 438.705 102.045 438.685 102.052 438.662C102.058 438.639 102.057 438.615 102.047 438.593Z" fill="#263238"/>
<path d="M87.9675 453.694C84.6963 453.152 81.3895 452.852 78.0742 452.797V452.872C81.3637 453.183 84.6531 453.358 87.9176 453.893C88.0547 453.918 88.1045 453.706 87.9675 453.694Z" fill="#263238"/>
<path d="M74.5236 439.29C74.5236 439.004 74.4613 438.717 74.4239 438.43C74.3408 437.783 74.2411 437.135 74.1248 436.487C73.9379 435.241 73.7261 433.995 73.4894 432.811C73.4894 432.699 73.2651 432.736 73.29 432.811C73.4395 434.057 73.5766 435.303 73.6887 436.611C73.6887 437.234 73.8009 437.857 73.8507 438.48C73.832 439.08 73.9163 439.678 74.0999 440.25C74.1996 440.449 74.4862 440.362 74.536 440.187C74.5894 439.89 74.5852 439.586 74.5236 439.29Z" fill="#263238"/>
<path d="M140.375 402.459C138.78 399.481 136.736 395.543 132.737 395.793C129.435 395.992 127.952 399.356 127.242 402.147C125.061 410.757 124.912 419.84 124.488 428.674C123.591 447.315 122.781 466.005 122.669 484.695C122.669 489.878 122.669 495.049 122.669 500.232C122.669 505.416 122.669 510.823 123.03 516.094C123.047 516.186 123.095 516.269 123.167 516.329C123.239 516.389 123.329 516.422 123.423 516.422C123.516 516.422 123.607 516.389 123.679 516.329C123.75 516.269 123.799 516.186 123.815 516.094C123.815 511.583 123.678 507.06 123.666 502.537C123.653 498.014 123.666 493.728 123.753 489.317C123.886 480.396 124.123 471.475 124.463 462.553C124.787 453.682 125.186 444.81 125.56 435.951C125.747 431.515 125.933 427.092 126.133 422.656C126.332 418.221 126.507 414.071 127.005 409.798C127.279 407.405 127.628 405.013 128.126 402.658C128.384 400.909 129.098 399.259 130.195 397.873C130.959 397.124 131.965 396.67 133.033 396.593C134.101 396.515 135.161 396.819 136.026 397.45C137.849 398.766 139.279 400.553 140.163 402.621C140.262 402.708 140.437 402.596 140.375 402.459Z" fill="#263238"/>
<path d="M139.303 401.063C139.303 401.063 136.013 389.45 143.277 395.257C155.376 404.951 155.75 425.933 155.75 425.933C155.75 425.933 134.244 413.473 131.578 405.2C127.64 392.939 139.303 401.063 139.303 401.063Z" fill="url(#paint3_linear_124_3075)"/>
<path d="M151.277 417.323L150.667 416.364C150.692 416.036 150.692 415.707 150.667 415.38V413.872C150.667 412.9 150.667 411.916 150.779 410.944C150.779 410.807 150.58 410.807 150.58 410.944C150.58 411.903 150.48 412.863 150.455 413.822C150.455 414.308 150.455 414.794 150.455 415.267C150.455 415.454 150.455 415.679 150.455 415.89C149.608 414.644 148.736 413.286 147.851 412.003C147.589 411.642 147.315 411.28 147.053 410.906C146.925 409.665 146.9 408.414 146.979 407.168C146.979 405.823 146.979 404.477 147.066 403.119C147.066 402.994 146.867 402.994 146.854 403.119C146.854 404.527 146.754 405.922 146.68 407.33C146.594 408.329 146.565 409.332 146.592 410.333C144.512 407.505 142.319 404.776 140.088 402.072C140.014 401.985 139.852 402.072 139.926 402.197C141.309 403.954 142.63 405.748 143.926 407.555C141.434 406.969 138.817 406.633 136.251 406.309C136.126 406.309 136.076 406.483 136.251 406.508C138.979 406.919 141.646 407.605 144.337 408.19C145.371 409.636 146.381 411.093 147.402 412.551C147.813 413.149 148.212 413.797 148.648 414.358H148.536L147.701 414.246C147.103 414.171 146.455 414.134 145.907 414.084C144.661 413.984 143.415 413.922 142.169 413.847C142.147 413.855 142.128 413.869 142.115 413.888C142.101 413.907 142.094 413.93 142.094 413.953C142.094 413.976 142.101 413.999 142.115 414.018C142.128 414.037 142.147 414.051 142.169 414.059C143.415 414.059 144.661 414.183 145.82 414.308L147.751 414.545L148.586 414.644H148.835L150.904 417.685C152.15 419.479 153.196 421.423 154.492 423.142C154.505 423.165 154.527 423.182 154.553 423.189C154.579 423.196 154.606 423.193 154.629 423.18C154.652 423.166 154.669 423.144 154.676 423.119C154.683 423.093 154.68 423.066 154.666 423.043C153.652 421.07 152.52 419.16 151.277 417.323Z" fill="#263238"/>
<path d="M145.919 404.203C145.919 403.754 145.919 403.306 145.919 402.845C145.894 401.896 145.932 400.947 146.031 400.004C146.031 399.978 146.021 399.952 146.002 399.933C145.984 399.915 145.958 399.904 145.932 399.904C145.905 399.904 145.88 399.915 145.861 399.933C145.843 399.952 145.832 399.978 145.832 400.004C145.832 400.951 145.732 401.885 145.683 402.832C145.683 403.293 145.683 403.767 145.683 404.24V404.888C145.645 405.111 145.645 405.338 145.683 405.561C145.69 405.58 145.702 405.597 145.719 405.608C145.736 405.62 145.756 405.626 145.776 405.626C145.796 405.626 145.816 405.62 145.833 405.608C145.85 405.597 145.862 405.58 145.869 405.561C145.901 405.355 145.901 405.145 145.869 404.938C145.932 404.676 145.919 404.44 145.919 404.203Z" fill="#263238"/>
<path d="M143.29 409.013C142.492 408.876 141.67 408.838 140.798 408.764C139.925 408.689 139.028 408.614 138.144 408.502C138.117 408.502 138.092 408.512 138.073 408.531C138.054 408.55 138.044 408.575 138.044 408.602C138.044 408.628 138.054 408.653 138.073 408.672C138.092 408.691 138.117 408.701 138.144 408.701C139.851 408.813 141.533 409.113 143.24 409.175C143.29 409.187 143.352 409.025 143.29 409.013Z" fill="#263238"/>
<path d="M150.018 409.087C150.018 409.174 150.018 409.423 150.018 409.535V410.719C150.018 410.993 150.018 411.255 150.018 411.529C149.968 411.763 149.968 412.005 150.018 412.239C150.018 412.239 150.018 412.239 150.105 412.239C150.13 412.128 150.13 412.014 150.105 411.903V411.529C150.105 411.255 150.105 410.981 150.105 410.719V409.473C150.105 409.361 150.105 409.124 150.105 409.025C150.105 408.925 149.881 408.887 150.018 409.087Z" fill="#263238"/>
<path d="M140.885 464.422C136.362 461.033 132.288 456.149 126.207 455.912C121.223 455.712 117.672 459.488 115.654 463.699C114.629 465.938 113.795 468.26 113.162 470.64C112.252 473.817 111.405 477.007 110.595 480.209C109.025 486.514 107.667 492.881 106.57 499.285C105.96 502.861 105.324 506.45 104.938 510.038C104.361 513.685 104.008 517.363 103.879 521.053C103.888 521.187 103.944 521.314 104.037 521.411C104.13 521.508 104.254 521.569 104.387 521.584C104.521 521.599 104.656 521.566 104.768 521.492C104.88 521.418 104.962 521.306 105 521.177C105.623 518.162 105.873 515.059 106.321 512.019C106.77 508.979 107.231 505.914 107.742 502.861C108.78 496.772 109.98 490.713 111.342 484.682C112.588 478.988 113.922 473.219 115.753 467.674C116.999 463.699 119.18 459.064 123.466 457.631C129.995 455.463 135.926 460.983 140.698 464.572C140.798 464.646 140.985 464.497 140.885 464.422Z" fill="#263238"/>
<path d="M136.2 461.17C136.2 461.17 132.026 449.271 138.057 446.941C147.09 443.44 170.752 470.079 166.116 510.898C166.116 510.898 147.838 500.831 134.356 489.504C120.874 478.178 117.398 463.338 123.341 459.6C129.285 455.862 136.2 461.17 136.2 461.17Z" fill="url(#paint4_linear_124_3075)"/>
<path d="M163.389 502.138C162.757 500.717 162.024 499.343 161.196 498.026C160.423 496.631 159.638 495.235 158.828 493.865C157.258 491.173 155.701 488.482 154.093 485.816L153.296 484.57C153.296 484.408 153.296 484.246 153.396 484.084C153.483 483.697 153.583 483.299 153.67 482.912C153.869 482.028 154.019 481.131 154.193 480.234C154.517 478.489 154.816 476.72 155.29 475C155.29 474.876 155.115 474.838 155.09 475C154.716 476.757 154.168 478.464 153.645 480.184C153.396 481.018 153.121 481.853 152.897 482.676L152.673 483.548C150.729 480.358 148.748 477.193 146.617 474.128C146.759 473.707 146.831 473.265 146.829 472.82C146.829 472.222 146.966 471.574 147.041 471.026C147.203 469.68 147.353 468.347 147.552 467.001C147.892 464.374 148.37 461.766 148.985 459.189C148.977 459.167 148.963 459.148 148.944 459.134C148.925 459.121 148.902 459.113 148.879 459.113C148.856 459.113 148.833 459.121 148.814 459.134C148.795 459.148 148.781 459.167 148.773 459.189C148.125 461.755 147.415 464.322 146.929 466.939C146.692 468.185 146.468 469.493 146.293 470.776C146.206 471.424 146.144 472.022 146.069 472.72C146.069 472.907 146.069 473.106 145.994 473.306C145.346 472.384 144.748 471.462 144.001 470.552C141.907 467.811 139.752 465.132 137.571 462.453C137.484 462.353 137.31 462.453 137.397 462.578C141.136 467.339 144.57 472.333 147.676 477.53C148.275 478.489 148.922 479.461 149.446 480.42L148.86 480.346C148.1 480.246 147.328 480.196 146.555 480.134C145.022 479.984 143.49 479.847 141.945 479.723C138.867 479.486 135.715 479.299 132.712 478.963C132.69 478.97 132.671 478.985 132.657 479.004C132.644 479.023 132.637 479.045 132.637 479.068C132.637 479.092 132.644 479.114 132.657 479.133C132.671 479.152 132.69 479.167 132.712 479.174C135.827 479.523 138.942 480.022 142.02 480.42L146.592 481.031C147.753 481.267 148.934 481.388 150.119 481.392C151.365 483.361 152.611 485.317 153.744 487.286C153.475 487.267 153.204 487.267 152.935 487.286H148.536C146.555 487.286 144.574 487.286 142.58 487.286C142.456 487.286 142.468 487.498 142.58 487.498C144.586 487.498 146.592 487.622 148.599 487.722L151.452 487.896L152.885 487.996C153.295 488.09 153.721 488.09 154.131 487.996C155.165 489.678 156.199 491.335 157.221 492.98C158.243 494.625 159.127 496.058 160.099 497.578C161.014 499.207 162.051 500.765 163.202 502.238C163.219 502.254 163.24 502.264 163.263 502.267C163.287 502.27 163.31 502.265 163.331 502.254C163.351 502.244 163.368 502.226 163.378 502.206C163.388 502.185 163.392 502.161 163.389 502.138Z" fill="#263238"/>
<path d="M154.678 469.156C154.49 470.464 154.219 471.758 153.868 473.031C153.532 474.352 153.146 475.673 152.71 476.969C152.705 476.985 152.703 477.002 152.705 477.019C152.706 477.036 152.712 477.053 152.72 477.068C152.728 477.083 152.739 477.096 152.752 477.107C152.765 477.118 152.78 477.126 152.797 477.131C152.813 477.136 152.83 477.137 152.847 477.136C152.864 477.134 152.881 477.129 152.896 477.121C152.911 477.113 152.924 477.102 152.935 477.088C152.946 477.075 152.954 477.06 152.959 477.043C153.358 475.797 153.731 474.452 154.043 473.144C154.354 471.835 154.566 470.502 154.89 469.194C154.915 469.057 154.691 469.019 154.678 469.156Z" fill="#263238"/>
<path d="M141.259 477.132C140.982 476.891 140.628 476.758 140.262 476.758L138.53 476.521C137.458 476.372 136.387 476.26 135.315 476.135C133.097 475.873 130.867 475.649 128.637 475.375C128.5 475.375 128.475 475.562 128.637 475.574C130.742 475.836 132.823 476.148 134.929 476.422L138.007 476.833L139.502 476.995C140.078 477.003 140.65 477.1 141.196 477.281C141.259 477.331 141.321 477.219 141.259 477.132Z" fill="#263238"/>
<path d="M154.654 495.073C153.595 494.986 152.536 494.949 151.489 494.924H149.894H149.121C148.79 494.961 148.456 494.961 148.125 494.924C147.975 494.924 147.963 495.161 148.125 495.136C148.435 495.105 148.748 495.105 149.059 495.136H149.894L151.489 495.235C152.536 495.235 153.595 495.36 154.654 495.36C154.766 495.298 154.778 495.086 154.654 495.073Z" fill="#263238"/>
<path d="M161.096 490.513L161.432 488.719C161.656 487.473 161.868 486.364 162.08 485.18C162.08 485.056 161.906 485.018 161.881 485.18C161.619 486.327 161.357 487.473 161.108 488.619C160.971 489.18 160.847 489.753 160.722 490.339C160.722 490.6 160.622 490.862 160.56 491.136C160.475 491.406 160.445 491.69 160.473 491.971C160.473 492.071 160.622 492.145 160.697 492.046C160.921 491.563 161.056 491.044 161.096 490.513Z" fill="#263238"/>
<path d="M99.2188 516.48L100.49 530.947L104.813 579.802H143.078L148.473 530.947L150.068 516.48H99.2188Z" fill="#37474F"/>
<path d="M99.2188 516.48L100.49 530.947H148.473L150.068 516.48H99.2188Z" fill="#263238"/>
<path d="M95.419 524.279H153.856V512.542H95.419V524.279Z" fill="#37474F"/>
<path d="M416.799 60.8926H206.225C203.4 60.917 200.607 61.4979 198.006 62.6021C195.406 63.7063 193.048 65.3121 191.068 67.3279C189.088 69.3436 187.525 71.7297 186.468 74.3498C185.411 76.9699 184.88 79.7726 184.906 82.5979V516.206C184.856 521.911 187.074 527.402 191.072 531.472C195.07 535.543 200.52 537.859 206.225 537.911H416.799C422.508 537.862 427.963 535.548 431.965 531.478C435.967 527.407 438.19 521.914 438.143 516.206V82.5979C438.168 79.771 437.635 76.9669 436.576 74.346C435.516 71.725 433.951 69.3384 431.969 67.3227C429.986 65.307 427.627 63.7016 425.024 62.5983C422.421 61.495 419.626 60.9154 416.799 60.8926ZM424.811 502.811C424.811 514.225 416.263 523.458 405.722 523.458H217.29C206.711 523.458 198.176 514.225 198.176 502.811V99.0326C198.176 75.7823 206.711 74.6484 217.29 74.6484H255.031C257.224 74.6484 259.018 77.1404 259.018 80.2305V81.5637C259.018 88.803 262.981 88.8279 267.852 88.8279H355.072C360.056 88.8279 363.907 88.8279 363.907 81.5637V80.2305C363.907 77.1404 365.676 74.6484 367.919 74.6484H405.66C416.201 74.6484 424.749 77.7385 424.749 99.0326L424.811 502.811Z" fill="#37474F"/>
<path d="M323.399 79.7452H299.588C299.199 79.7452 298.825 79.5903 298.549 79.3146C298.273 79.0389 298.118 78.6649 298.118 78.275C298.118 77.885 298.273 77.5111 298.549 77.2353C298.825 76.9596 299.199 76.8047 299.588 76.8047H323.399C323.789 76.8047 324.163 76.9596 324.439 77.2353C324.715 77.5111 324.87 77.885 324.87 78.275C324.87 78.6649 324.715 79.0389 324.439 79.3146C324.163 79.5903 323.789 79.7452 323.399 79.7452Z" fill="white"/>
<path d="M424.885 99.0327V502.811C424.885 514.225 416.338 523.458 405.797 523.458H217.289C206.723 523.458 198.176 514.225 198.176 502.811V99.0327C198.176 75.7823 206.723 74.6484 217.289 74.6484H255.031C257.224 74.6484 259.018 77.1404 259.018 80.2305V81.5637C259.018 88.803 262.98 88.8279 267.852 88.8279H355.109C360.019 88.8279 363.944 88.8279 363.944 81.5637V80.2305C363.944 77.1404 365.713 74.6484 367.943 74.6484H405.697C416.276 74.6484 424.885 77.7385 424.885 99.0327Z" fill="white"/>
<path d="M424.811 99.0327V129.672H198.114V99.0327C198.114 75.7823 206.662 74.6484 217.228 74.6484H254.982C257.175 74.6484 258.969 77.1404 258.969 80.2305V81.5637C258.969 88.803 262.931 88.8279 267.791 88.8279H355.11C360.019 88.8279 363.957 88.8279 363.957 81.5637V80.2305C363.957 77.1404 365.726 74.6484 367.957 74.6484H405.698C416.264 74.6484 424.811 77.7385 424.811 99.0327Z" fill="url(#paint5_linear_124_3075)"/>
<path d="M248.515 83.7189L248.153 84.0803L247.942 84.2921C247.008 83.3638 245.745 82.8428 244.428 82.8428C243.111 82.8428 241.848 83.3638 240.914 84.2921L240.715 84.0927L240.354 83.7314L240.815 83.3202C241.141 83.0476 241.502 82.8174 241.886 82.6349C242.335 82.4215 242.808 82.2625 243.294 82.1614L244.004 82.0742H244.627H245.101C245.528 82.1246 245.946 82.2292 246.347 82.3857C246.653 82.4973 246.949 82.6348 247.231 82.7969C247.53 82.9619 247.81 83.1582 248.066 83.3825L248.453 83.7314L248.515 83.7189Z" fill="white"/>
<path d="M242.06 85.438L241.487 84.8648C242.267 84.0895 243.322 83.6543 244.422 83.6543C245.521 83.6543 246.576 84.0895 247.356 84.8648L246.783 85.4505C246.477 85.1366 246.11 84.8877 245.706 84.7186C245.301 84.5495 244.866 84.4636 244.428 84.4661C243.542 84.4656 242.691 84.8148 242.06 85.438Z" fill="white"/>
<path d="M246.21 85.9744L245.637 86.5476C245.315 86.2295 244.881 86.0511 244.428 86.0511C243.976 86.0511 243.541 86.2295 243.22 86.5476C243.02 86.3607 242.833 86.1738 242.646 85.9744C242.879 85.737 243.156 85.5485 243.462 85.4197C243.768 85.2909 244.096 85.2246 244.428 85.2246C244.76 85.2246 245.089 85.2909 245.395 85.4197C245.701 85.5485 245.978 85.737 246.21 85.9744Z" fill="white"/>
<path d="M244.938 87.1073C244.94 87.1754 244.928 87.2432 244.903 87.3066C244.878 87.3701 244.841 87.4279 244.793 87.4766C244.746 87.5254 244.689 87.5641 244.626 87.5906C244.563 87.617 244.496 87.6306 244.428 87.6306C244.289 87.6306 244.156 87.5755 244.058 87.4774C243.959 87.3792 243.904 87.2461 243.904 87.1073C243.904 86.9685 243.959 86.8354 244.058 86.7373C244.156 86.6391 244.289 86.584 244.428 86.584C244.496 86.584 244.563 86.5976 244.626 86.624C244.689 86.6505 244.746 86.6892 244.793 86.738C244.841 86.7868 244.878 86.8446 244.903 86.908C244.928 86.9714 244.94 87.0392 244.938 87.1073Z" fill="white"/>
<path d="M212.941 84.8287C212.939 84.53 213.025 84.2373 213.189 83.9877C213.354 83.7382 213.588 83.543 213.863 83.427C214.139 83.3109 214.442 83.2793 214.736 83.3361C215.029 83.3928 215.299 83.5354 215.511 83.7458C215.723 83.9561 215.868 84.2247 215.927 84.5175C215.986 84.8103 215.957 85.1141 215.843 85.3903C215.729 85.6665 215.536 85.9027 215.288 86.0689C215.04 86.2352 214.748 86.3239 214.449 86.3239C214.051 86.3239 213.67 86.1668 213.387 85.8868C213.105 85.6067 212.945 85.2264 212.941 84.8287Z" fill="white"/>
<path d="M217.676 84.8287C217.673 84.53 217.76 84.2373 217.924 83.9877C218.088 83.7382 218.323 83.543 218.598 83.427C218.873 83.3109 219.177 83.2793 219.47 83.3361C219.763 83.3928 220.033 83.5354 220.245 83.7458C220.457 83.9561 220.602 84.2247 220.661 84.5175C220.72 84.8103 220.691 85.1141 220.578 85.3903C220.464 85.6665 220.271 85.9027 220.022 86.0689C219.774 86.2352 219.482 86.3239 219.184 86.3239C218.786 86.3239 218.404 86.1668 218.122 85.8868C217.839 85.6067 217.679 85.2264 217.676 84.8287Z" fill="white"/>
<path d="M222.411 84.8287C222.409 84.5294 222.495 84.2362 222.66 83.9864C222.825 83.7366 223.06 83.5414 223.336 83.4257C223.612 83.3101 223.916 83.2792 224.21 83.337C224.503 83.3947 224.773 83.5386 224.985 83.7502C225.196 83.9618 225.34 84.2316 225.398 84.5252C225.456 84.8188 225.425 85.1229 225.309 85.3989C225.194 85.6749 224.998 85.9103 224.749 86.075C224.499 86.2397 224.206 86.3263 223.906 86.3239C223.511 86.3206 223.132 86.162 222.853 85.8823C222.573 85.6026 222.414 85.2242 222.411 84.8287Z" fill="white"/>
<path d="M227.146 84.8287C227.143 84.5294 227.23 84.2362 227.394 83.9864C227.559 83.7366 227.794 83.5414 228.07 83.4257C228.346 83.3101 228.651 83.2792 228.944 83.337C229.238 83.3947 229.508 83.5386 229.719 83.7502C229.931 83.9618 230.075 84.2316 230.132 84.5252C230.19 84.8188 230.159 85.1229 230.044 85.3989C229.928 85.6749 229.733 85.9103 229.483 86.075C229.233 86.2397 228.94 86.3263 228.641 86.3239C228.245 86.3206 227.867 86.162 227.587 85.8823C227.307 85.6026 227.149 85.2242 227.146 84.8287Z" fill="white"/>
<path d="M231.868 84.8287C231.866 84.53 231.952 84.2373 232.116 83.9877C232.28 83.7382 232.515 83.543 232.79 83.427C233.066 83.3109 233.369 83.2793 233.662 83.3361C233.956 83.3928 234.225 83.5354 234.437 83.7458C234.65 83.9561 234.794 84.2247 234.854 84.5175C234.913 84.8103 234.884 85.1141 234.77 85.3903C234.656 85.6665 234.463 85.9027 234.215 86.0689C233.967 86.2352 233.675 86.3239 233.376 86.3239C232.978 86.3239 232.597 86.1668 232.314 85.8868C232.032 85.6067 231.872 85.2264 231.868 84.8287Z" fill="white"/>
<path d="M407.654 87.943H395.742V82.5977H407.654V87.943ZM396.054 87.6315H407.342V82.9092H396.054V87.6315Z" fill="white"/>
<path d="M404.489 83.3945H396.602V87.1325H404.489V83.3945Z" fill="white"/>
<path d="M408.899 83.7559H407.815V86.7836H408.899V83.7559Z" fill="white"/>
<path d="M218.25 122.246L213.577 117.86L218.25 113.486L218.972 114.259L215.122 117.86L218.972 121.473L218.25 122.246Z" fill="white"/>
<path d="M409.423 113.312C409.423 113.559 409.35 113.8 409.213 114.005C409.076 114.21 408.881 114.369 408.653 114.464C408.426 114.558 408.175 114.583 407.934 114.534C407.692 114.486 407.47 114.368 407.296 114.193C407.121 114.019 407.003 113.797 406.955 113.555C406.907 113.314 406.931 113.063 407.025 112.836C407.12 112.608 407.28 112.413 407.484 112.276C407.689 112.139 407.93 112.066 408.177 112.066C408.507 112.066 408.824 112.198 409.058 112.431C409.291 112.665 409.423 112.982 409.423 113.312Z" fill="white"/>
<path d="M409.423 117.859C409.423 118.106 409.35 118.347 409.213 118.552C409.076 118.756 408.881 118.916 408.653 119.01C408.426 119.105 408.175 119.129 407.934 119.081C407.692 119.033 407.47 118.915 407.296 118.74C407.121 118.566 407.003 118.344 406.955 118.102C406.907 117.861 406.931 117.61 407.025 117.382C407.12 117.155 407.28 116.96 407.484 116.823C407.689 116.686 407.93 116.613 408.177 116.613C408.507 116.613 408.824 116.745 409.058 116.978C409.291 117.212 409.423 117.529 409.423 117.859Z" fill="white"/>
<path d="M409.423 122.42C409.423 122.666 409.35 122.907 409.213 123.112C409.076 123.317 408.881 123.477 408.653 123.571C408.426 123.665 408.175 123.69 407.934 123.642C407.692 123.594 407.47 123.475 407.296 123.301C407.121 123.127 407.003 122.905 406.955 122.663C406.907 122.421 406.931 122.171 407.025 121.943C407.12 121.715 407.28 121.521 407.484 121.384C407.689 121.247 407.93 121.174 408.177 121.174C408.507 121.174 408.824 121.305 409.058 121.539C409.291 121.772 409.423 122.089 409.423 122.42Z" fill="white"/>
<path d="M400.539 146.93H222.461V325.008H400.539V146.93Z" fill="#EBEBEB"/>
<path d="M270.083 337.804C276.986 337.542 283.889 337.43 290.792 337.331C297.694 337.231 304.597 337.231 311.5 337.181C318.403 337.131 325.306 337.181 332.209 337.318L342.563 337.492C346.014 337.605 349.466 337.654 352.917 337.804C349.466 337.941 346.014 338.003 342.563 338.103L332.209 338.277C325.306 338.377 318.403 338.377 311.5 338.427C304.597 338.477 297.694 338.427 290.792 338.277C283.889 338.128 276.986 338.053 270.083 337.804Z" fill="#37474F"/>
<path d="M248.24 345.254C258.781 345.005 269.323 344.88 279.876 344.78L311.5 344.631L343.123 344.78L358.947 344.955L374.759 345.254L358.947 345.565L343.123 345.74L311.5 345.877L279.876 345.74C269.323 345.64 258.781 345.516 248.24 345.254Z" fill="#37474F"/>
<path d="M365.527 369.801H257.474V397.312H365.527V369.801Z" fill="url(#paint6_linear_124_3075)"/>
<path d="M365.527 415.678H257.474V443.189H365.527V415.678Z" fill="#DBDBDB"/>
<path d="M341.217 325.007H289.844C287.776 317.593 285.757 310.466 283.901 304.024C283.776 303.601 283.652 303.189 283.539 302.778C283.505 302.676 283.475 302.572 283.452 302.467C282.53 299.277 281.658 296.237 280.848 293.508L280.512 292.374C280.312 291.651 280.1 290.954 279.914 290.268C277.758 282.929 276.176 277.584 275.49 275.316L275.129 274.07H322.888C322.888 274.07 324.657 278.83 327.498 286.618L328.109 288.287C331.498 297.645 336.208 310.715 341.217 325.007Z" fill="#455A64"/>
<path d="M295.801 325.007H294.692C294.368 323.761 294.019 322.602 293.682 321.394C291.552 313.918 289.309 306.442 287.029 299.041L286.767 298.193L286.692 297.957L285.26 293.272L285.147 292.898L284.4 290.406L284.325 290.194C284.326 290.173 284.326 290.152 284.325 290.132C284.321 290.061 284.321 289.99 284.325 289.92C284.25 289.696 284.188 289.471 284.113 289.259L283.727 288.013C283.577 287.54 283.428 287.079 283.291 286.605C282.535 284.113 281.779 281.659 281.023 279.242C281.02 279.215 281.027 279.189 281.041 279.167C281.056 279.145 281.078 279.129 281.103 279.122C281.128 279.114 281.155 279.116 281.179 279.127C281.204 279.137 281.223 279.156 281.235 279.179C281.87 280.899 282.481 282.631 283.104 284.363C283.727 286.095 284.35 287.764 284.886 289.471L285.035 289.907C285.035 290.019 285.098 290.119 285.135 290.219L285.995 292.773C286.306 293.695 286.605 294.617 286.904 295.539C286.992 295.763 287.067 295.992 287.129 296.225C287.241 296.549 287.353 296.872 287.452 297.196C287.552 297.52 287.59 297.595 287.652 297.807C290.48 306.816 293.197 315.911 295.801 325.007Z" fill="#263238"/>
<path d="M314.989 315.699C310.304 319.001 305.37 321.929 300.51 325.007H299.663C301.881 323.287 304.149 321.605 306.479 320.023L307.463 319.362C308.709 318.552 309.955 317.767 311.201 317.032C312.447 316.297 313.469 315.699 314.628 315.089C314.704 315.072 314.784 315.08 314.856 315.111C314.928 315.143 314.988 315.196 315.028 315.263C315.068 315.331 315.086 315.409 315.079 315.488C315.072 315.566 315.04 315.64 314.989 315.699Z" fill="#263238"/>
<path d="M310.254 276.262C310.254 276.076 309.855 276.088 309.893 276.262C310.977 282.941 311.463 288.884 311.874 295.214C312.061 298.155 312.21 314.54 307.002 314.153C306.13 314.091 305.569 313.331 305.245 312.073C305.008 310.422 304.974 308.748 305.145 307.089C305.145 303.65 305.145 300.211 304.871 296.784C304.495 290.385 303.456 284.042 301.769 277.857C301.764 277.836 301.755 277.816 301.742 277.798C301.729 277.78 301.713 277.765 301.695 277.754C301.676 277.742 301.656 277.734 301.634 277.731C301.613 277.727 301.591 277.728 301.569 277.733C301.548 277.738 301.528 277.747 301.51 277.759C301.492 277.772 301.477 277.788 301.466 277.807C301.454 277.825 301.446 277.846 301.443 277.867C301.439 277.889 301.44 277.911 301.445 277.932C302.941 286.653 303.774 295.475 303.937 304.322C303.937 308.596 302.828 315.188 307.288 315.15C311.749 315.113 313.07 304.16 313.17 301.207C313.279 292.801 312.299 284.417 310.254 276.262Z" fill="#263238"/>
<path d="M307.239 314.59C306.96 315.743 306.756 316.912 306.628 318.091C306.453 319.013 306.453 319.96 306.628 320.882C306.645 320.917 306.67 320.946 306.702 320.966C306.734 320.987 306.771 320.997 306.809 320.997C306.847 320.997 306.884 320.987 306.916 320.966C306.948 320.946 306.974 320.917 306.99 320.882C307.384 319.979 307.64 319.021 307.75 318.041C307.974 316.957 308.211 315.873 308.41 314.789C308.437 314.634 308.4 314.475 308.309 314.346C308.218 314.218 308.08 314.131 307.924 314.104C307.769 314.078 307.61 314.114 307.481 314.205C307.353 314.296 307.265 314.435 307.239 314.59Z" fill="#263238"/>
<path d="M254.795 314.316C259.638 314.036 264.425 313.131 269.037 311.624C274.261 309.945 278.999 307.02 282.842 303.102C285.011 300.946 286.802 298.439 288.138 295.688C288.138 295.588 288.35 295.688 288.312 295.775C287.496 298.46 286.232 300.988 284.574 303.251C282.845 305.476 280.796 307.433 278.494 309.058C273.956 312.377 268.622 314.436 263.031 315.026C260.273 315.448 257.463 315.402 254.72 314.889C254.408 314.777 254.533 314.341 254.795 314.316Z" fill="#263238"/>
<path d="M255.343 325.006H254.184C252.46 319.952 251 314.812 249.811 309.606C249.051 306.215 248.522 302.776 248.229 299.314C248.216 299.098 248.216 298.882 248.229 298.666C248.216 298.492 248.216 298.317 248.229 298.143C248.166 297.432 248.141 296.735 248.129 296.024C248.129 294.778 248.129 293.532 248.129 292.286C248.255 286.9 249.383 281.585 251.456 276.612C251.518 276.462 251.717 276.612 251.668 276.724C249.716 281.651 248.706 286.9 248.69 292.199C248.659 293.979 248.721 295.759 248.877 297.532C248.864 297.685 248.864 297.84 248.877 297.993C248.864 298.072 248.864 298.151 248.877 298.23C248.877 298.454 248.877 298.678 248.877 298.903C249.22 302.171 249.757 305.416 250.484 308.621C250.484 308.771 250.484 308.908 250.584 309.058C251.898 314.451 253.487 319.774 255.343 325.006Z" fill="#263238"/>
<path d="M294.641 199.995C308.098 221.103 335.572 247.219 345.403 246.097C350.063 245.549 358.549 245.586 363.969 239.431C375.806 226.012 384.341 206.475 387.905 193.678C389.151 189.18 361.477 177.48 358.686 181.567C352.157 191.248 345.453 209.44 344.083 209.515C339.011 209.789 317.505 195.634 302.092 186.252C284.823 175.686 289.271 191.585 294.641 199.995Z" fill="#AD6359"/>
<path d="M386.123 197.541C387.917 194.102 394.72 177.605 395.593 172.621C396.465 167.637 397.898 152.972 394.122 151.925C390.347 150.879 389.587 155.115 389.587 155.115C389.587 155.115 389.213 148.885 385.313 148.125C381.413 147.365 380.441 154.068 380.441 154.068C380.441 154.068 379.594 147.651 375.657 147.215C371.719 146.779 371.856 153.632 371.856 153.632C371.856 153.632 371.358 147.726 367.956 148.735C363.869 149.981 366.025 160.722 364.654 166.179C364.343 167.425 356.543 190.912 356.543 190.912L386.123 197.541Z" fill="#AD6359"/>
<path d="M371.856 152.984C373.426 160.908 372.729 164.646 369.875 172.072C369.813 172.209 370.012 172.334 370.087 172.185C373.551 165.17 375.071 160.609 372.23 152.884C372.093 152.51 371.782 152.597 371.856 152.984Z" fill="#263238"/>
<path d="M380.305 153.37C381.214 161.755 380.504 165.83 378.074 173.804C378.074 173.916 378.236 173.991 378.274 173.879C381.314 166.228 382.747 161.643 380.766 153.395C380.653 153.021 380.267 152.996 380.305 153.37Z" fill="#263238"/>
<path d="M389.45 155.463C389.736 163.624 389.151 168.122 385.799 175.574C385.724 175.748 385.973 175.885 386.061 175.711C390.222 168.446 391.045 162.852 389.699 155.476C389.612 154.977 389.425 154.94 389.45 155.463Z" fill="#263238"/>
<path d="M354.624 195.622C354.624 195.622 350.886 186.214 350.126 181.729C349.366 177.243 352.78 159.463 356.655 159.974C361.639 160.647 361.727 171.287 361.079 176.508C361.079 176.508 372.654 178.041 374.361 185.666C376.068 193.292 354.624 195.622 354.624 195.622Z" fill="#AD6359"/>
<path d="M357.976 160.559C362.1 164.471 360.804 171.262 360.555 176.371C360.548 176.445 360.559 176.52 360.588 176.59C360.617 176.659 360.662 176.72 360.719 176.768C360.777 176.816 360.846 176.849 360.919 176.864C360.992 176.88 361.068 176.877 361.14 176.857C365.95 177.828 372.454 180.595 374.522 185.342C374.585 185.479 374.797 185.417 374.747 185.267C373.227 179.872 367.059 176.632 361.714 175.91C362.05 170.676 363.059 163.811 357.976 160.521V160.559Z" fill="#263238"/>
<path d="M351.559 191.497L383.768 209.888C383.768 209.888 370.062 238.982 358.923 243.754C347.783 248.526 344.145 247.492 340.93 247.068C337.716 246.645 312.746 229.089 295.053 200.892C278.381 174.252 296.436 181.504 310.005 190.313C317.755 195.297 342.338 208.118 343.235 207.757C344.133 207.396 351.559 191.497 351.559 191.497Z" fill="#263238"/>
<path d="M349.503 200.169C354.587 202.661 359.583 205.29 364.567 207.957C367.059 209.277 376.504 214.86 379.233 216.43C379.345 216.492 379.171 216.791 379.058 216.729C376.429 215.483 366.511 210.137 364.106 208.779C359.185 206.025 354.276 203.234 349.453 200.294C349.441 200.295 349.428 200.293 349.417 200.287C349.405 200.282 349.395 200.274 349.388 200.264C349.38 200.253 349.375 200.241 349.374 200.229C349.372 200.216 349.374 200.203 349.378 200.192C349.383 200.18 349.391 200.169 349.401 200.161C349.41 200.153 349.422 200.148 349.435 200.146C349.447 200.143 349.46 200.144 349.472 200.149C349.484 200.153 349.495 200.16 349.503 200.169Z" fill="#37474F"/>
<path d="M244.216 292.449C244.427 292.661 329.18 287.191 329.903 286.219C330.9 284.973 305.556 194.402 296.099 183.649C294.068 181.343 287.888 181.082 282.717 182.091C281.366 182.33 280.039 182.693 278.755 183.175C278.71 183.186 278.663 183.186 278.618 183.175C277.58 183.556 276.614 184.112 275.764 184.82C262.058 197.392 252.551 238.722 250.52 251.082C247.169 271.541 243.481 291.702 244.216 292.449Z" fill="#EBEBEB"/>
<path d="M277.746 183.498C277.746 183.498 285.434 220.878 287.303 230.622C289.172 240.365 290.892 292.062 290.892 292.062L237.937 299.538C237.937 299.538 247.12 264.575 247.107 262.395C247.107 262.395 253.574 220.654 261.698 203.11C265.335 195.341 270.851 188.601 277.746 183.498Z" fill="#263238"/>
<path d="M271.865 188.582L261.897 296.174L237.986 299.601C237.986 299.601 247.169 264.638 247.157 262.47C247.157 262.47 253.624 220.716 261.76 203.16C264.273 197.76 267.69 192.83 271.865 188.582Z" fill="#37474F"/>
<path d="M296.647 183.162C296.647 183.162 304.871 220.866 305.693 223.981C306.516 227.096 319.262 288.611 319.262 288.611L332.607 288.125L323.748 260.202C323.748 260.202 303.538 190.9 296.647 183.162Z" fill="#263238"/>
<path d="M293.196 195.522C289.172 196.207 281.197 191.024 278.718 185.192C278.556 184.781 279.54 180.844 280.5 175.997C281.085 173.044 281.646 169.767 281.957 166.714C282.02 166.091 300.573 173.256 300.573 173.256C299.102 176.952 298.089 180.814 297.557 184.756C297.514 185.17 297.514 185.588 297.557 186.002C297.563 186.073 297.563 186.144 297.557 186.214C297.719 188.631 297.507 194.774 293.196 195.522Z" fill="#AD6359"/>
<path d="M297.569 186.015V186.227C296.912 186.247 296.253 186.213 295.601 186.127C284.387 184.756 282.842 170.402 282.63 166.789C285.969 167.611 300.572 173.256 300.572 173.256C299.102 176.952 298.089 180.814 297.557 184.756C297.523 185.175 297.528 185.597 297.569 186.015Z" fill="#263238"/>
<path d="M280.786 142.679C278.294 149.32 280.5 169.157 285.023 173.829C291.589 180.645 303.002 182.028 308.958 173.991C314.727 166.191 311.338 140.349 306.217 136.051C298.679 129.683 284.524 132.861 280.786 142.679Z" fill="#AD6359"/>
<path d="M297.407 155.75C297.407 155.75 297.308 155.825 297.32 155.875C297.507 157.208 297.495 158.765 296.336 159.338C296.336 159.338 296.336 159.426 296.336 159.413C297.794 159.064 297.794 156.996 297.407 155.75Z" fill="#263238"/>
<path d="M296.063 154.504C293.894 154.579 294.194 158.902 296.2 158.84C298.206 158.778 297.882 154.504 296.063 154.504Z" fill="#263238"/>
<path d="M305.419 155.139C305.419 155.139 305.531 155.139 305.531 155.251C305.531 156.596 305.868 158.129 307.101 158.49V158.565C305.606 158.453 305.27 156.422 305.419 155.139Z" fill="#263238"/>
<path d="M306.516 153.657C308.659 153.345 309.132 157.656 307.139 157.943C305.145 158.23 304.721 153.918 306.516 153.657Z" fill="#263238"/>
<path d="M294.218 152.636C294.774 152.434 295.319 152.201 295.85 151.938C296.462 151.767 297 151.399 297.382 150.891C297.475 150.71 297.503 150.503 297.462 150.304C297.421 150.105 297.314 149.925 297.158 149.795C296.814 149.581 296.42 149.462 296.016 149.448C295.611 149.435 295.21 149.529 294.853 149.72C294.071 150.003 293.422 150.567 293.034 151.303C292.954 151.474 292.926 151.666 292.954 151.853C292.981 152.04 293.063 152.216 293.188 152.357C293.314 152.499 293.479 152.601 293.661 152.65C293.844 152.7 294.038 152.695 294.218 152.636Z" fill="#263238"/>
<path d="M308.048 151.351C307.456 151.28 306.87 151.172 306.291 151.027C305.66 150.995 305.057 150.758 304.572 150.354C304.449 150.193 304.382 149.996 304.382 149.793C304.382 149.59 304.449 149.393 304.572 149.232C304.857 148.944 305.215 148.738 305.607 148.635C305.999 148.532 306.412 148.536 306.802 148.647C307.625 148.749 308.38 149.153 308.92 149.781C309.04 149.931 309.112 150.114 309.128 150.305C309.144 150.497 309.102 150.689 309.009 150.857C308.916 151.025 308.775 151.162 308.603 151.25C308.432 151.337 308.239 151.373 308.048 151.351Z" fill="#263238"/>
<path d="M302.84 165.431C302.325 166.209 301.617 166.84 300.784 167.263C300.322 167.479 299.805 167.549 299.302 167.462C298.218 167.25 298.056 166.216 298.255 165.418C298.335 164.964 298.469 164.52 298.654 164.098C299.869 164.981 301.338 165.449 302.84 165.431Z" fill="#263238"/>
<path d="M300.784 167.263C300.322 167.48 299.805 167.549 299.302 167.462C298.218 167.251 298.056 166.216 298.255 165.419C298.824 165.391 299.385 165.559 299.845 165.894C300.306 166.23 300.637 166.713 300.784 167.263Z" fill="#FF9BBC"/>
<path d="M309.532 142.455C308.685 140.81 307.725 139.141 306.666 138.879C305.607 138.617 304.535 141.782 302.106 142.069C298.779 142.48 296.249 138.729 291.839 139.091C287.428 139.452 285.509 143.776 285.197 153.532C284.936 161.556 280.811 162.64 280.811 162.64C280.811 162.64 275.753 143.95 280.338 137.72C284.923 131.49 297.109 129.422 305.158 134.493C308.086 136.35 309.532 142.455 309.532 142.455Z" fill="#263238"/>
<path d="M284.636 159.202C284.636 159.202 280.512 152.648 277.546 154.093C274.581 155.538 277.546 164.896 280.811 166.316C281.225 166.526 281.677 166.651 282.14 166.683C282.603 166.714 283.068 166.652 283.507 166.499C283.945 166.347 284.348 166.108 284.692 165.796C285.036 165.484 285.314 165.106 285.508 164.684L284.636 159.202Z" fill="#AD6359"/>
<path d="M278.444 156.76C278.444 156.76 278.381 156.76 278.444 156.847C280.761 157.919 281.908 160.174 282.668 162.491C282.541 162.247 282.364 162.033 282.146 161.865C281.929 161.696 281.678 161.577 281.41 161.515C281.142 161.453 280.864 161.451 280.595 161.508C280.325 161.564 280.072 161.679 279.852 161.843C279.789 161.843 279.852 161.981 279.852 161.968C280.275 161.857 280.721 161.879 281.132 162.03C281.542 162.182 281.895 162.456 282.144 162.815C282.555 163.424 282.898 164.076 283.166 164.759C283.266 164.971 283.652 164.884 283.59 164.634C283.826 161.557 281.683 157.221 278.444 156.76Z" fill="#263238"/>
<path d="M267.554 192.792C247.618 217.987 233.451 252.663 234.098 260.587C234.809 269.309 247.705 299.487 259.143 313.343C260.601 315.125 268.825 313.879 275.59 309.605C282.73 305.119 288.362 297.531 286.804 295.463C280.898 287.688 266.208 257.061 266.046 252.152C265.896 247.604 274.868 219.245 277.983 202.96C280.948 187.347 276.836 181.068 267.554 192.792Z" fill="#AD6359"/>
<path d="M246.035 311.724L284.661 290.031C284.661 290.031 267.03 256.04 266.794 252.277C266.557 248.514 275.167 218.411 278.257 204.568C281.347 190.725 278.979 175.486 263.18 197.092C247.381 218.698 234.31 250.172 233.089 258.408C231.868 266.644 246.035 311.724 246.035 311.724Z" fill="#263238"/>
<path d="M268.264 242.147C268.937 239.505 269.639 236.876 270.37 234.26C271.18 231.319 272.027 228.403 272.862 225.538C273.696 222.672 274.743 219.918 275.703 217.102C275.765 216.903 276.126 217.015 276.064 217.227C274.955 220.965 273.921 224.703 272.899 228.515C273.734 226.784 274.581 225.039 275.478 223.332C275.498 223.311 275.524 223.296 275.553 223.29C275.582 223.285 275.612 223.288 275.638 223.301C275.665 223.313 275.686 223.334 275.7 223.36C275.714 223.386 275.719 223.415 275.715 223.444C274.718 225.55 273.659 227.631 272.588 229.674L271.84 232.415C270.457 237.487 269.136 242.583 268.002 247.716C267.708 248.862 267.537 250.036 267.491 251.218C267.51 252.565 267.785 253.897 268.301 255.143C269.161 257.435 270.096 259.69 271.055 261.946C272.974 266.469 275.042 270.929 277.198 275.34C279.69 280.324 282.394 285.308 285.122 290.192L283.615 290.703C283.615 290.703 283.503 290.703 283.54 290.629C283.836 290.428 284.144 290.245 284.462 290.08C281.733 285.881 279.117 281.745 276.762 277.309C274.407 272.873 272.313 268.412 270.382 263.84C269.369 261.489 268.409 259.113 267.504 256.712C266.525 254.495 266.155 252.056 266.432 249.648C266.916 247.118 267.528 244.615 268.264 242.147Z" fill="#37474F"/>
<path d="M244.74 300.572C246.101 299.721 247.511 298.951 248.964 298.267C250.21 297.594 251.456 296.896 252.702 296.236C255.48 294.791 258.234 293.32 261.012 291.9C263.791 290.48 266.545 289.034 269.323 287.626C272.102 286.218 274.831 284.748 277.671 283.502C277.784 283.502 277.858 283.614 277.771 283.689C275.217 285.458 272.476 286.966 269.797 288.511C267.118 290.056 264.439 291.464 261.723 292.872C259.006 294.28 256.153 295.663 253.337 296.996C251.979 297.644 250.596 298.242 249.225 298.84C247.783 299.555 246.297 300.18 244.777 300.709C244.727 300.722 244.665 300.622 244.74 300.572Z" fill="#37474F"/>
<path d="M458.428 232.654C461.239 235.568 464.37 238.155 467.761 240.367C463.5 230.287 467.188 209.292 467.449 212.394C468.695 227.221 475.661 244.204 479 245.438H479.062C487.491 247.576 496.386 246.916 504.406 243.557C498.699 232.031 501.914 210.612 502.188 211.983C505.54 226.686 515.259 236.33 517.14 236.554C524.977 230.86 529.6 224.717 528.653 223.92C522.112 218.051 517.676 204.594 513.95 190.502C510.212 176.609 509.19 163.713 503.073 150.941C497.478 139.241 483.697 135.304 474.988 139.727C452.149 151.278 454.441 228.555 458.428 232.654Z" fill="#263238"/>
<path d="M492.719 142.667C498.326 144.81 502.375 150.766 504.743 156.086C507.895 163.151 509.552 170.901 511.957 178.253C516.547 192.726 523.37 206.393 532.179 218.76C532.208 218.814 532.217 218.875 532.205 218.935C532.193 218.995 532.161 219.048 532.114 219.086C532.067 219.125 532.008 219.145 531.947 219.145C531.886 219.144 531.827 219.123 531.781 219.084C521.688 209.116 515.583 195.908 510.997 182.564C508.643 175.736 507.01 168.708 504.83 161.83C503.709 158.041 502.083 154.42 499.995 151.065C497.927 148.076 495.279 145.533 492.208 143.589C492.111 143.509 492.045 143.398 492.021 143.275C491.998 143.152 492.018 143.024 492.079 142.915C492.14 142.805 492.237 142.72 492.354 142.675C492.471 142.63 492.6 142.627 492.719 142.667Z" fill="#263238"/>
<path d="M386.634 579.391C389.463 580.275 472.185 578.494 475.2 576.475C476.359 575.727 469.269 497.379 469.269 497.379L416.812 498.388L422.781 550.733C422.781 550.733 392.254 565.186 389.139 567.753C386.024 570.32 383.768 578.506 386.634 579.391Z" fill="#EB9481"/>
<path d="M386.634 579.39C389.463 580.274 472.185 578.493 475.2 576.474C475.561 576.237 475.673 568.288 474.353 557.934C459.401 560.426 405.823 568.662 401.649 566.207C398.745 564.5 401.312 561.834 403.692 559.977C396.864 563.391 390.484 566.668 389.164 567.765C386.098 570.356 383.768 578.505 386.634 579.39Z" fill="#263238"/>
<path d="M421.298 538.273L472.807 537.55C472.807 537.55 462.603 414.196 463.026 411.829C463.562 408.788 500.107 265.523 500.107 265.523H450.953C450.953 265.523 412.19 399.057 410.807 411.928C408.551 432.637 421.298 538.273 421.298 538.273Z" fill="#263238"/>
<path d="M448.399 579.577C451.24 580.462 533.949 578.668 536.977 576.649C538.136 575.914 533.812 497.516 533.812 497.516L482.041 498.512L484.533 550.969C484.533 550.969 454.018 565.435 450.891 568.002C447.763 570.569 445.57 578.693 448.399 579.577Z" fill="#EB9481"/>
<path d="M448.398 579.577C451.226 580.449 533.948 578.667 536.964 576.649C537.337 576.424 537.25 568.674 536.964 558.096C522.012 560.588 467.586 568.836 463.45 566.394C460.534 564.675 463.113 562.008 465.493 560.164C458.653 563.566 452.285 566.843 450.965 567.952C447.875 570.556 445.57 578.705 448.398 579.577Z" fill="#263238"/>
<path d="M452.548 265.398C452.548 265.398 453.968 288.898 459.588 307.463C460.036 308.996 460.522 310.504 461.046 311.949C466.005 313.882 470.78 316.259 475.312 319.051C475.312 319.051 478.851 408.95 478.789 414.532C478.552 435.415 483.897 537.139 483.897 537.139L535.818 536.653C535.818 536.653 530.435 421.622 530.41 413.959C530.41 406.57 526.884 359.883 523.744 319.413C523.744 319.413 528.367 306.492 527.856 299.962C526.61 284.126 519.52 265.423 519.52 265.423L452.548 265.398Z" fill="#263238"/>
<path d="M449.806 265.398L419.316 358.375C419.316 358.375 447.189 367.508 462.141 371.047C475.287 374.137 537.599 363.035 537.599 363.035C537.599 363.035 526.385 272.949 519.545 265.423L449.806 265.398Z" fill="url(#paint7_linear_124_3075)"/>
<path d="M494.039 265.398C493.07 266.124 492.187 266.96 491.41 267.89C493.051 267.335 494.607 266.555 496.033 265.572L496.307 265.373L494.039 265.398ZM531.145 364.131H531.295H531.145ZM482.626 329.442C481.177 330.398 479.869 331.552 478.739 332.869C482.03 331.726 484.967 329.746 487.261 327.125C485.61 327.687 484.049 328.484 482.626 329.492V329.442ZM434.854 363.358L435.914 363.67C436.313 363.282 436.684 362.866 437.023 362.424C436.275 362.673 435.549 362.986 434.854 363.358ZM442.031 292.087C441.57 292.411 441.122 292.735 440.686 293.084L440.15 294.716C441.063 294.268 441.945 293.761 442.792 293.196C444.242 292.247 445.547 291.093 446.667 289.77C445.028 290.321 443.476 291.101 442.056 292.087H442.031ZM500.718 304.024C499.761 302.572 498.603 301.264 497.279 300.136C497.834 301.781 498.613 303.341 499.597 304.772C500.551 306.222 501.709 307.527 503.036 308.647C502.486 307.004 501.706 305.447 500.718 304.024ZM462.491 355.235C461.533 353.787 460.375 352.482 459.052 351.359C459.606 353.003 460.39 354.559 461.382 355.982C462.328 357.439 463.482 358.749 464.808 359.87C464.262 358.222 463.481 356.661 462.491 355.235ZM504.63 346.961C502.93 346.613 501.189 346.508 499.46 346.65C502.598 348.162 506.076 348.836 509.552 348.606C507.998 347.827 506.341 347.273 504.63 346.961ZM461.843 312.995C460.143 312.647 458.402 312.542 456.672 312.684C459.806 314.198 463.279 314.872 466.752 314.64C465.201 313.863 463.549 313.309 461.843 312.995ZM526.224 288.848C525.201 288.497 524.156 288.214 523.096 288C521.397 287.646 519.655 287.541 517.925 287.689C519.48 288.464 521.137 289.014 522.847 289.321C524.018 289.55 525.206 289.679 526.398 289.707C526.336 289.421 526.286 289.134 526.224 288.848ZM527.245 319.337C525.734 322.472 525.06 325.945 525.289 329.417C526.072 327.87 526.622 326.216 526.921 324.508C527.274 322.809 527.383 321.068 527.245 319.337ZM443.676 326.066C442.163 329.205 441.489 332.682 441.72 336.158C442.51 334.587 443.064 332.907 443.365 331.174C443.707 329.494 443.812 327.775 443.676 326.066ZM494.837 363.371C494.064 364.922 493.514 366.575 493.205 368.28C493.117 368.779 493.03 369.265 492.968 369.763L494.214 369.613C494.314 369.265 494.388 368.903 494.463 368.542C494.832 366.845 494.958 365.104 494.837 363.371ZM474.016 280.724C473.241 282.278 472.691 283.936 472.384 285.645C472.025 287.344 471.916 289.086 472.06 290.816C473.573 287.678 474.247 284.2 474.016 280.724Z" fill="white"/>
<path d="M468.596 195.274C443.265 217.602 419.74 242.098 417.771 254.72C415.055 272.164 425.771 277.148 430.593 277.26C443.713 277.534 468.16 224.604 476.695 204.382C484.968 184.745 474.165 190.377 468.596 195.274Z" fill="url(#paint8_linear_124_3075)"/>
<path d="M435.665 262.37C434.135 265.498 433.46 268.976 433.708 272.45C435.223 269.316 435.897 265.843 435.665 262.37ZM426.768 242.758C425.711 242.554 424.641 242.425 423.566 242.371C423.392 242.621 423.23 242.87 423.08 243.107C424.193 243.523 425.339 243.844 426.507 244.066C428.206 244.419 429.947 244.528 431.678 244.39C430.126 243.617 428.474 243.067 426.768 242.758ZM450.33 232.79C448.881 233.746 447.573 234.899 446.443 236.216C448.082 235.657 449.634 234.868 451.053 233.874C452.505 232.928 453.811 231.773 454.928 230.447C453.294 230.999 451.746 231.779 450.33 232.765V232.79Z" fill="white"/>
<path d="M449.806 265.397L454.79 243.206C454.79 243.206 446.006 234.098 450.554 224.516C452.846 219.694 468.459 196.145 476.794 190.239C484.619 184.694 493.902 189.304 497.366 195.31C506.125 210.573 514.461 228.017 519.582 265.46L449.806 265.397Z" fill="url(#paint9_linear_124_3075)"/>
<path d="M479.1 205.965C478.323 207.515 477.769 209.168 477.455 210.874C477.1 212.573 476.995 214.315 477.144 216.045C478.655 212.91 479.329 209.437 479.1 205.965ZM487.822 236.729C486.122 236.376 484.381 236.267 482.651 236.405C484.2 237.183 485.853 237.733 487.56 238.037C489.26 238.389 491.001 238.498 492.731 238.361C491.167 237.589 489.502 237.043 487.784 236.741L487.822 236.729ZM463.413 256.104C462.464 254.65 461.31 253.34 459.986 252.216C460.533 253.864 461.313 255.425 462.304 256.851C463.257 258.298 464.411 259.603 465.73 260.727C465.174 259.079 464.381 257.522 463.375 256.104H463.413ZM450.367 232.766L449.582 233.339C449.669 233.788 449.781 234.212 449.906 234.585L451.152 233.825C452.605 232.879 453.91 231.725 455.027 230.399C453.355 230.957 451.773 231.755 450.33 232.766H450.367ZM495.285 264.527C494.862 264.826 494.45 265.125 494.039 265.449H496.307C497.66 264.547 498.876 263.456 499.92 262.209C498.272 262.756 496.711 263.536 495.285 264.527Z" fill="white"/>
<path d="M465.194 240.366C468.744 240.754 472.259 241.408 475.711 242.322C477.43 242.795 479.1 243.344 480.769 243.929C481.604 244.228 482.451 244.49 483.261 244.752C484.142 245.043 485.054 245.231 485.978 245.312C485.994 245.312 486.01 245.319 486.022 245.331C486.033 245.342 486.04 245.358 486.04 245.375C486.04 245.391 486.033 245.407 486.022 245.419C486.01 245.43 485.994 245.437 485.978 245.437C485.104 245.466 484.23 245.433 483.361 245.337C482.52 245.224 481.687 245.053 480.869 244.826C479.125 244.353 477.418 243.817 475.673 243.331C472.184 242.359 468.683 241.387 465.12 240.665C464.983 240.627 465.032 240.353 465.194 240.366Z" fill="#263238"/>
<path d="M456.348 243.344C459.282 243.1 462.227 243.016 465.17 243.095C466.653 243.095 468.111 243.282 469.568 243.444C470.266 243.531 470.964 243.619 471.662 243.731C472.359 243.843 473.182 244.055 473.942 244.154C474.029 244.154 474.029 244.291 473.942 244.279C473.219 244.204 472.472 244.279 471.749 244.279L469.543 244.167L465.145 243.98C462.205 243.818 459.289 243.693 456.348 243.631C456.31 243.631 456.274 243.616 456.247 243.589C456.22 243.562 456.205 243.526 456.205 243.488C456.205 243.45 456.22 243.413 456.247 243.386C456.274 243.359 456.31 243.344 456.348 243.344Z" fill="#263238"/>
<path d="M498.251 193.13C521.825 211.658 545.013 243.667 545.175 261.572C545.35 279.241 539.195 277.534 537.438 277.409C526.759 276.711 501.615 227.569 493.965 207.471C486.314 187.373 492.42 188.519 498.251 193.13Z" fill="url(#paint10_linear_124_3075)"/>
<path d="M522.959 253.063C522.187 254.597 521.637 256.234 521.327 257.923C521.19 258.67 521.077 259.43 521.003 260.191L521.775 261.362C522.134 260.319 522.422 259.254 522.635 258.172C522.983 256.493 523.092 254.773 522.959 253.063ZM502.749 201.977C501.793 200.529 500.639 199.22 499.322 198.09C500.465 201.381 502.445 204.318 505.066 206.612C504.519 204.969 503.738 203.412 502.749 201.99V201.977ZM544.589 256.415C544.202 256.011 543.786 255.637 543.343 255.294C543.74 256.518 544.275 257.693 544.938 258.795C544.889 258.035 544.764 257.237 544.589 256.428V256.415ZM519.582 224.655C518.134 225.611 516.825 226.764 515.695 228.081C518.986 226.938 521.923 224.958 524.217 222.337C522.569 222.884 521.008 223.664 519.582 224.655Z" fill="white"/>
<path d="M523.321 263.579C522.075 261.349 520.829 259.156 519.583 256.913L515.845 250.222C513.428 245.749 510.96 241.301 508.606 236.79C506.251 232.279 503.821 227.819 501.491 223.308C500.32 221.041 499.177 218.769 498.064 216.493C496.918 214.225 495.859 211.907 494.8 209.59C496.48 214.406 498.431 219.123 500.644 223.719C502.799 228.342 505.154 232.865 507.509 237.425C509.864 241.986 512.418 246.359 514.985 250.745C517.552 255.131 520.318 259.405 523.321 263.579Z" fill="#263238"/>
<path d="M497.304 215.559C496.865 214.758 496.378 213.984 495.846 213.242L495.049 212.157C494.762 211.809 494.501 211.435 494.177 211.086C494.395 211.987 494.793 212.835 495.348 213.578C495.867 214.358 496.531 215.03 497.304 215.559Z" fill="#263238"/>
<path d="M425.173 228.841C426.419 220.543 428.911 208.98 431.876 206.588C434.842 204.195 446.442 195.673 449.719 194.576C452.996 193.48 467.637 188.097 470.303 189.68C472.434 190.926 469.829 196.545 462.827 199.174C459.046 200.691 455.359 202.435 451.787 204.395C450.006 205.142 445.67 210.849 446.803 213.416C447.476 214.924 451.787 216.73 454.554 215.534C457.32 214.338 458.017 208.968 461.145 206.463C464.272 203.959 469.742 204.333 470.041 205.815C470.34 207.298 468.534 207.958 465.668 212.955C463.836 216.17 463.624 223.92 459.438 229.427C457.321 232.698 455.403 236.093 453.694 239.594L425.173 228.841Z" fill="#EB9481"/>
<path d="M464.098 204.207C465.107 204.059 466.054 203.627 466.827 202.961C467.145 202.669 467.367 202.286 467.462 201.865C467.494 201.633 467.494 201.399 467.462 201.167C467.447 200.964 467.373 200.769 467.251 200.606C467.251 200.606 467.251 200.494 467.251 200.606C467.322 200.724 467.401 200.836 467.487 200.943C467.556 201.039 467.61 201.143 467.649 201.254C467.725 201.47 467.759 201.699 467.749 201.927C467.727 202.437 467.534 202.924 467.201 203.31C466.798 203.719 466.306 204.029 465.764 204.217C465.221 204.405 464.643 204.466 464.073 204.394C464.073 204.394 464.061 204.207 464.098 204.207Z" fill="#263238"/>
<path d="M431.876 206.587C434.567 202.463 441.408 195.061 448.074 192.557C452.622 190.875 468.11 198.612 467.624 201.59C467.138 204.568 464.484 204.543 460.546 204.082C459.114 203.895 451.55 201.092 450.242 202.674C448.361 204.942 445.918 212.742 445.918 212.742L431.876 206.587Z" fill="#EB9481"/>
<path d="M467.25 200.42C465.369 197.217 461.157 195.436 456.958 194.09C456.958 194.09 456.859 194.165 456.958 194.19C458.03 194.538 464.846 197.766 467.238 200.42C467.25 200.507 467.325 200.457 467.25 200.42Z" fill="#263238"/>
<path d="M431.876 206.587C434.567 202.463 441.408 195.062 448.074 192.557C452.622 190.875 464.833 200.706 464.347 203.672C463.861 206.637 460.048 206.849 455.837 205.329C454.478 204.843 449.931 201.591 448.622 203.148C446.741 205.416 442.143 211.048 442.143 211.048L431.876 206.587Z" fill="#EB9481"/>
<path d="M444.822 207.558C445.246 206.911 445.395 206.686 445.844 206.038C446.293 205.39 446.729 204.792 447.227 204.157C447.607 203.592 448.084 203.098 448.635 202.699C449.205 202.386 449.86 202.264 450.504 202.35C451.954 202.675 453.321 203.298 454.516 204.182C456.454 205.395 458.685 206.058 460.97 206.101C461.578 206.071 462.172 205.914 462.715 205.64C463.125 205.459 463.484 205.181 463.762 204.83C464.733 203.21 463.562 201.353 462.354 200.033C459.971 197.635 457.177 195.685 454.105 194.276C453.382 193.902 452.647 193.553 451.912 193.217C451.092 192.76 450.182 192.488 449.246 192.42C447.713 192.42 445.196 193.927 444.411 194.388C444.349 194.388 444.311 194.388 444.411 194.289C445.358 193.715 447.713 191.797 450.18 191.983C451.082 192.123 451.951 192.423 452.747 192.868C453.607 193.254 454.441 193.653 455.239 194.114C456.872 194.933 458.439 195.879 459.924 196.943C461.415 197.942 462.708 199.21 463.737 200.681C464.168 201.327 464.417 202.079 464.456 202.855C464.496 203.632 464.325 204.404 463.961 205.091C463.628 205.52 463.207 205.872 462.725 206.122C462.243 206.371 461.712 206.513 461.17 206.537C460.521 206.624 459.863 206.624 459.214 206.537C457.783 206.218 456.376 205.802 455.002 205.291C453.669 204.742 452.51 203.82 451.09 203.397C450.768 203.277 450.424 203.225 450.081 203.244C449.738 203.264 449.403 203.354 449.096 203.509C448.526 203.876 448.017 204.33 447.588 204.855C446.67 205.752 445.835 206.732 445.096 207.783C444.822 207.932 444.66 207.833 444.822 207.558Z" fill="#263238"/>
<path d="M429.87 210.176C430.867 208.219 432.586 200.108 434.181 197.628C435.776 195.149 443.028 186.601 446.367 187.012C450.579 187.523 446.118 195.049 443.875 198.152C441.632 201.254 441.956 206.562 441.956 206.562L429.87 210.176Z" fill="#EB9481"/>
<path d="M442.019 207.447C441.848 209.478 442.195 211.519 443.029 213.378C443.403 214.322 443.844 215.238 444.349 216.119C444.866 216.988 445.441 217.82 446.069 218.611C447.273 220.141 448.282 221.816 449.072 223.595C449.817 225.407 450.34 227.302 450.629 229.24C450.786 227.221 450.553 225.19 449.944 223.259C449.282 221.331 448.301 219.528 447.041 217.926C445.845 216.373 444.81 214.703 443.951 212.942C443.007 211.23 442.354 209.373 442.019 207.447Z" fill="#263238"/>
<path d="M431.815 276.612C440.013 275.516 445.371 261.797 454.729 237.687C456.373 233.463 434.942 207.447 432.039 211.322C428.363 216.219 418.482 243.444 417.436 250.87C415.392 265.535 422.233 277.945 431.815 276.612Z" fill="#EB9481"/>
<path d="M449.807 251.182L423.367 225.527C423.367 225.527 415.891 247.631 416.551 256.889C417.211 266.147 420.488 276.701 431.64 277.286C439.988 277.697 449.807 251.182 449.807 251.182Z" fill="url(#paint11_linear_124_3075)"/>
<path d="M426.768 242.758C425.069 242.4 423.327 242.291 421.597 242.434C423.146 243.213 424.799 243.763 426.506 244.067C428.205 244.419 429.947 244.528 431.677 244.391C430.126 243.617 428.473 243.068 426.768 242.758ZM435.664 262.37C434.134 265.499 433.459 268.977 433.708 272.45C435.222 269.317 435.896 265.843 435.664 262.37Z" fill="white"/>
<path d="M441.246 268.95C442.193 267.604 443.053 266.183 443.875 264.763C444.697 263.343 445.47 261.885 446.218 260.415C446.965 258.944 447.638 257.437 448.249 255.904C448.901 254.379 449.414 252.799 449.781 251.182C449.083 252.677 448.348 254.147 447.601 255.605L445.383 260.003C444.66 261.474 443.937 262.944 443.252 264.439C442.567 265.934 441.857 267.417 441.246 268.95Z" fill="#263238"/>
<path d="M444.1 255.654C442.854 254.246 441.408 252.95 440.038 251.617C438.667 250.283 437.297 248.963 435.914 247.667C433.123 245.075 430.319 242.484 427.491 239.942L425.148 237.861C424.301 237.138 423.366 236.515 422.531 235.768C422.469 235.768 422.382 235.768 422.444 235.867C423.117 236.528 423.69 237.275 424.351 237.936C425.011 238.596 425.734 239.294 426.444 239.967L430.606 243.892C433.384 246.496 436.188 249.075 439.053 251.592C440.673 253 442.268 254.483 443.963 255.803C443.983 255.821 444.009 255.831 444.036 255.83C444.062 255.829 444.088 255.817 444.106 255.797C444.124 255.777 444.134 255.751 444.133 255.724C444.131 255.697 444.12 255.672 444.1 255.654Z" fill="#263238"/>
<path d="M491.236 191.062C491.037 192.408 485.48 201.678 478.091 201.229C473.805 200.968 476.72 192.408 476.72 192.408L472.982 180.708L487.187 169.893C487.187 169.893 491.311 190.489 491.236 191.062Z" fill="#EB9481"/>
<path d="M488.682 177.593C487.736 180.663 486.168 183.505 484.076 185.943C481.984 188.38 479.412 190.36 476.521 191.76L473.007 180.67L487.186 169.893L488.682 177.593Z" fill="#263238"/>
<path d="M460.111 159.239C454.928 178.676 465.992 183.972 470.179 185.081C473.991 186.09 487.074 189.056 494.239 170.253C501.403 151.451 494.002 142.904 485.417 140.138C476.832 137.372 465.294 139.801 460.111 159.239Z" fill="#EB9481"/>
<path d="M464.945 157.457C465.411 157.461 465.877 157.44 466.341 157.394C466.833 157.446 467.328 157.332 467.749 157.07C467.862 156.962 467.937 156.819 467.961 156.664C467.986 156.508 467.96 156.349 467.886 156.211C467.698 155.956 467.445 155.757 467.153 155.634C466.862 155.511 466.542 155.469 466.229 155.513C465.58 155.492 464.947 155.719 464.459 156.148C464.352 156.251 464.277 156.383 464.244 156.527C464.211 156.672 464.22 156.823 464.272 156.962C464.324 157.101 464.415 157.222 464.535 157.31C464.654 157.398 464.797 157.449 464.945 157.457Z" fill="#263238"/>
<path d="M478.078 160.335C477.653 160.189 477.237 160.018 476.832 159.824C476.342 159.719 475.903 159.451 475.586 159.064C475.508 158.926 475.479 158.766 475.504 158.61C475.529 158.454 475.606 158.311 475.723 158.204C475.982 158.022 476.287 157.915 476.603 157.893C476.919 157.871 477.235 157.935 477.517 158.08C478.134 158.278 478.657 158.694 478.987 159.251C479.06 159.385 479.091 159.538 479.076 159.69C479.061 159.842 479 159.986 478.902 160.103C478.804 160.22 478.673 160.305 478.526 160.346C478.379 160.387 478.223 160.384 478.078 160.335Z" fill="#263238"/>
<path d="M473.953 164.871C473.953 164.871 474.041 164.958 474.028 165.021C473.729 166.354 473.617 167.936 474.738 168.609C474.738 168.609 474.738 168.696 474.738 168.684C473.268 168.21 473.48 166.092 473.953 164.871Z" fill="#263238"/>
<path d="M475.424 163.701C477.617 163.95 476.957 168.323 474.926 168.087C472.895 167.85 473.58 163.489 475.424 163.701Z" fill="#263238"/>
<path d="M476.246 164.061C476.583 164.36 476.894 164.858 477.355 164.971C477.816 165.083 478.352 164.709 478.763 164.323C478.763 164.323 478.838 164.323 478.826 164.385C478.713 165.22 478.265 166.03 477.343 166.03C476.421 166.03 476.034 165.182 475.947 164.31C475.972 164.148 476.109 163.936 476.246 164.061Z" fill="#263238"/>
<path d="M466.503 163.102C466.503 163.102 466.378 163.102 466.366 163.201C466.104 164.534 465.568 166.03 464.26 166.192C464.26 166.192 464.198 166.266 464.26 166.266C465.768 166.403 466.466 164.472 466.503 163.102Z" fill="#263238"/>
<path d="M465.63 161.433C463.525 160.76 462.353 165.034 464.31 165.644C466.266 166.255 467.4 161.981 465.63 161.433Z" fill="#263238"/>
<path d="M464.672 161.47C464.273 161.595 463.824 161.919 463.426 161.832C463.027 161.745 462.74 161.184 462.553 160.661C462.553 160.598 462.491 160.661 462.479 160.661C462.229 161.47 462.267 162.392 463.002 162.766C463.737 163.14 464.397 162.542 464.821 161.794C464.883 161.67 464.833 161.408 464.672 161.47Z" fill="#263238"/>
<path d="M467.064 169.295C466.761 170.258 466.507 171.235 466.303 172.223C466.303 172.31 466.515 172.385 466.827 172.46C467.619 172.747 468.476 172.808 469.301 172.636C470.126 172.464 470.887 172.067 471.499 171.488C471.587 171.413 471.499 171.289 471.387 171.338C470.032 171.964 468.514 172.143 467.051 171.849C467.051 171.575 468.21 168.497 468.06 168.46C467.31 168.41 466.556 168.456 465.818 168.597C466.964 164.448 468.771 160.523 469.855 156.374C469.86 156.343 469.855 156.311 469.839 156.283C469.824 156.256 469.8 156.234 469.771 156.223C469.741 156.211 469.709 156.21 469.679 156.219C469.649 156.229 469.623 156.248 469.605 156.274C467.564 160.431 465.94 164.78 464.758 169.258C464.584 169.781 466.652 169.457 467.064 169.295Z" fill="#263238"/>
<path d="M467.55 172.047C467.925 172.81 468.486 173.465 469.182 173.954C469.569 174.209 470.028 174.332 470.49 174.303C471.5 174.303 471.736 173.381 471.674 172.596C471.661 172.174 471.598 171.756 471.487 171.35C470.283 171.996 468.903 172.241 467.55 172.047Z" fill="#263238"/>
<path d="M469.182 173.954C469.568 174.21 470.028 174.332 470.49 174.303C471.499 174.303 471.736 173.381 471.674 172.596C471.166 172.505 470.642 172.59 470.189 172.837C469.736 173.084 469.381 173.478 469.182 173.954Z" fill="#FF9ABB"/>
<path d="M492.345 171.313C487.473 170.167 489.056 154.791 489.268 152.91C489.068 154.156 488.022 160.386 487.486 160.485C486.961 160.373 486.459 160.171 486.003 159.887C486.149 159.143 486.237 158.389 486.265 157.632C486.265 157.283 485.991 158.355 485.53 159.65L484.682 159.227C485.051 157.647 485.206 156.025 485.143 154.405C485.143 153.794 484.446 156.398 483.424 158.591C479.459 156.533 475.281 154.916 470.964 153.769C469.718 153.483 468.684 153.283 467.737 153.146C468.098 151.315 468.696 149.408 468.484 149.795C467.891 150.826 467.407 151.916 467.039 153.047C466.528 152.972 466.042 152.91 465.619 152.872C466.005 150.256 468.111 146.368 467.525 146.916C465.919 148.623 464.651 150.619 463.787 152.797C461.955 152.797 461.395 153.034 461.444 152.573C462.985 147.573 466.259 143.288 470.677 140.487C477.966 135.939 490.489 136.923 495.597 147.19C495.597 147.19 500.581 152.037 500.245 158.193C499.908 164.348 495.161 171.948 492.345 171.313Z" fill="#263238"/>
<path d="M490.925 169.544C490.925 169.544 496.332 164.124 498.874 166.155C501.416 168.186 496.581 176.584 493.068 177.232C492.623 177.346 492.16 177.369 491.706 177.299C491.252 177.23 490.817 177.069 490.427 176.827C490.037 176.585 489.7 176.266 489.437 175.89C489.173 175.514 488.988 175.089 488.894 174.64L490.925 169.544Z" fill="#EB9481"/>
<path d="M497.403 168.535C497.403 168.535 497.403 168.609 497.403 168.622C494.911 169.145 493.329 171.114 492.096 173.145C492.271 172.938 492.49 172.771 492.736 172.657C492.982 172.542 493.251 172.483 493.522 172.483C493.794 172.483 494.062 172.542 494.308 172.657C494.555 172.771 494.773 172.938 494.949 173.145C494.949 173.145 494.949 173.282 494.862 173.257C494.479 173.056 494.042 172.979 493.614 173.037C493.185 173.095 492.785 173.285 492.469 173.581C491.941 174.072 491.469 174.619 491.061 175.213C490.912 175.413 490.563 175.213 490.688 175.001C491.173 171.949 494.189 168.273 497.403 168.535Z" fill="#263238"/>
<path d="M471.238 200.507L482.377 234.997C482.813 236.006 482.377 236.878 481.343 236.94L463.251 238.186C462.698 238.18 462.157 238.017 461.692 237.718C461.227 237.418 460.856 236.993 460.622 236.492L449.483 202.003C449.046 200.993 449.483 200.121 450.517 200.059L468.609 198.875C469.156 198.872 469.694 199.023 470.159 199.312C470.624 199.601 470.998 200.015 471.238 200.507Z" fill="#37474F"/>
<path d="M469.094 200.607L480.221 235.096C480.67 236.105 480.221 236.978 479.199 237.04L461.095 238.286C460.54 238.278 459.999 238.114 459.534 237.812C459.069 237.51 458.699 237.082 458.466 236.579L447.314 202.052C446.866 201.056 447.314 200.183 448.336 200.121L466.44 198.875C467.003 198.877 467.552 199.042 468.023 199.349C468.494 199.656 468.866 200.093 469.094 200.607Z" fill="#455A64"/>
<path d="M464.235 202.562C464.261 202.867 464.376 203.157 464.567 203.395C464.758 203.634 465.015 203.811 465.306 203.904C465.597 203.997 465.91 204.001 466.203 203.916C466.497 203.831 466.759 203.661 466.956 203.428C467.153 203.194 467.276 202.907 467.31 202.604C467.344 202.3 467.287 201.993 467.147 201.721C467.006 201.45 466.788 201.226 466.521 201.079C466.253 200.931 465.948 200.866 465.643 200.892C465.44 200.908 465.243 200.964 465.062 201.057C464.881 201.149 464.721 201.277 464.59 201.432C464.458 201.588 464.36 201.768 464.299 201.962C464.238 202.156 464.216 202.36 464.235 202.562Z" fill="#263238"/>
<path d="M539.892 277.347C531.992 278.443 522.149 272.301 496.606 253.673C493.067 251.081 504.568 221.277 508.48 223.769C513.464 226.996 531.855 240.59 533.076 241.749C543.393 251.592 545.262 276.612 539.892 277.347Z" fill="#EB9481"/>
<path d="M517.601 232.827C517.601 232.827 510.337 222.61 504.854 218.436C499.044 214.235 492.301 211.507 485.205 210.486C477.554 209.365 458.266 211.932 458.03 217.613C457.83 222.759 477.405 219.134 477.405 219.134C477.405 219.134 456.834 219.532 457.718 225.775C458.603 232.017 481.106 226.522 481.106 226.522C481.106 226.522 459.924 227.407 461.905 233.699C463.363 238.447 484.021 234.621 484.021 234.621C484.021 234.621 465.867 235.506 467.15 240.453C468.583 245.935 487.871 243.593 487.871 243.593C493.279 255.629 501.029 259.018 506.661 260.887C508.019 261.348 517.601 232.827 517.601 232.827Z" fill="#EB9481"/>
<path d="M484.508 218.548C482.091 218.548 479.649 218.448 477.231 218.623C474.814 218.797 472.409 219.059 470.029 219.445C466.895 219.92 463.826 220.756 460.884 221.937C466.254 220.267 474.889 219.445 477.306 219.333C479.723 219.221 482.116 218.859 484.52 218.685C484.583 218.635 484.57 218.548 484.508 218.548Z" fill="#263238"/>
<path d="M485.305 227.246C482.215 227.333 479.137 227.246 476.047 227.52C472.957 227.794 470.079 228.206 467.038 228.642C466.802 228.642 466.889 228.779 467.126 228.766C470.191 228.455 473.056 228.405 476.122 228.143C479.187 227.882 482.239 227.483 485.305 227.321C485.354 227.321 485.342 227.246 485.305 227.246Z" fill="#263238"/>
<path d="M487.323 234.598C482.578 234.609 477.847 235.11 473.206 236.093C472.981 236.093 473.119 236.267 473.355 236.242C478.04 235.657 481.703 235.158 487.31 234.76C487.41 234.76 487.423 234.598 487.323 234.598Z" fill="#263238"/>
<path d="M517.601 228.766L507.546 265.398C507.546 265.398 534.547 281.297 540.515 277.098C546.483 272.899 542.571 251.717 535.818 243.63C533.002 240.304 517.601 228.766 517.601 228.766Z" fill="url(#paint12_linear_124_3075)"/>
<path d="M522.959 253.062C522.187 254.596 521.637 256.233 521.327 257.922C520.974 259.621 520.865 261.363 521.003 263.093C521.784 261.54 522.334 259.882 522.635 258.171C522.983 256.492 523.092 254.772 522.959 253.062Z" fill="white"/>
<path d="M517.277 229.988L517.664 228.742H517.564C520.118 230.822 522.685 232.891 525.202 234.972C527.719 237.052 530.261 239.171 532.678 241.388C533.898 242.463 535.047 243.616 536.117 244.84C537.131 246.105 538.04 247.451 538.833 248.864C540.397 251.738 541.495 254.842 542.085 258.06C541.828 254.747 540.936 251.515 539.456 248.541C538.713 247.04 537.811 245.624 536.765 244.317C535.691 243.041 534.533 241.839 533.301 240.716C530.809 238.485 528.317 236.404 525.7 234.386C523.084 232.367 520.417 230.449 517.664 228.617L517.589 228.555V228.654L517.277 229.988Z" fill="#263238"/>
<path d="M523.519 237.861C522.909 239.668 522.435 241.524 521.937 243.356C521.439 245.188 520.928 247.094 520.467 248.888C519.532 252.626 518.61 256.277 517.75 259.99C517.514 260.999 517.277 262.021 517.053 263.043C516.828 264.065 516.716 265.248 516.479 266.332C516.479 266.349 516.486 266.365 516.498 266.376C516.509 266.388 516.525 266.395 516.542 266.395C516.558 266.395 516.574 266.388 516.586 266.376C516.598 266.365 516.604 266.349 516.604 266.332C516.853 265.423 517.227 264.563 517.489 263.653C517.75 262.744 518.025 261.784 518.274 260.85C518.76 259.006 519.233 257.112 519.707 255.318C520.641 251.58 521.563 247.929 522.386 244.203C522.847 242.11 523.382 240.004 523.719 237.874C523.72 237.861 523.718 237.847 523.714 237.835C523.709 237.823 523.703 237.811 523.694 237.801C523.685 237.792 523.675 237.784 523.663 237.778C523.651 237.772 523.638 237.769 523.625 237.768C523.612 237.767 523.599 237.769 523.587 237.773C523.574 237.777 523.563 237.784 523.553 237.793C523.543 237.801 523.535 237.812 523.529 237.824C523.524 237.835 523.52 237.848 523.519 237.861Z" fill="#263238"/>
<path d="M507.546 265.398C507.372 265.747 507.384 265.461 507.422 265.249C507.647 264.201 507.926 263.166 508.256 262.146C508.256 262.034 508.468 261.835 508.406 262.233C508.177 263.303 507.89 264.36 507.546 265.398Z" fill="#263238"/>
<path d="M567.466 121.197C566.95 126.164 565.064 130.89 562.017 134.847C558.97 138.804 554.883 141.835 550.212 143.602C545.541 145.37 540.471 145.803 535.568 144.854C530.665 143.905 526.122 141.612 522.448 138.23L508.979 140.211L515.719 128.561C514.035 124.458 513.401 119.999 513.875 115.59C514.72 108.568 518.292 102.16 523.821 97.7496C529.35 93.339 536.391 91.2794 543.425 92.0155C550.459 92.7516 556.921 96.2244 561.417 101.684C565.912 107.144 568.081 114.152 567.453 121.197H567.466Z" fill="white"/>
<path d="M567.466 121.198C566.948 126.181 565.064 130.924 562.021 134.904C561.245 135.889 560.413 136.829 559.529 137.719C558.631 138.578 557.683 139.381 556.688 140.124C554.704 141.627 552.519 142.844 550.196 143.738C547.867 144.65 545.422 145.233 542.932 145.47C541.689 145.575 540.441 145.6 539.194 145.544C537.94 145.512 536.69 145.378 535.456 145.146C530.485 144.24 525.867 141.961 522.124 138.567L522.448 138.666L508.979 140.735L508.007 140.884L508.505 140.025L515.209 128.35V128.811C513.628 124.949 512.956 120.775 513.243 116.613C513.53 112.45 514.77 108.408 516.866 104.8C518.964 101.208 521.848 98.1363 525.301 95.8165C529.597 92.96 534.616 91.3833 539.773 91.2702C544.93 91.1571 550.014 92.5122 554.43 95.1776C558.847 97.843 562.415 101.709 564.719 106.325C567.022 110.94 567.966 116.116 567.441 121.247L567.466 121.198ZM567.466 121.198C567.897 117.14 567.39 113.038 565.985 109.207C564.581 105.377 562.315 101.92 559.363 99.1027C556.412 96.2858 552.852 94.1842 548.96 92.9599C545.068 91.7356 540.947 91.4213 536.914 92.0411C532.926 92.6397 529.128 94.1444 525.812 96.4395C522.516 98.7498 519.765 101.752 517.751 105.236C515.761 108.723 514.593 112.618 514.337 116.625C514.08 120.63 514.728 124.641 516.23 128.362L516.33 128.611L516.193 128.823L509.415 140.448L508.929 139.738L522.423 137.857H522.61L522.735 137.981C526.34 141.347 530.809 143.646 535.643 144.622C536.847 144.866 538.067 145.016 539.294 145.071C540.538 145.16 541.788 145.16 543.032 145.071C545.491 144.883 547.911 144.35 550.221 143.488C552.55 142.649 554.742 141.469 556.725 139.987C558.739 138.543 560.524 136.804 562.021 134.829C565.053 130.871 566.937 126.155 567.466 121.198Z" fill="#263238"/>
<path d="M537.512 133.757L526.012 122.107L529.874 118.294L536.59 125.097L550.558 103.205L555.143 106.121L537.512 133.757Z" fill="url(#paint13_linear_124_3075)"/>
<defs>
<linearGradient id="paint0_linear_124_3075" x1="145.568" y1="443.004" x2="193.902" y2="443.004" gradientUnits="userSpaceOnUse">
<stop stop-color="#F0784A"/>
<stop offset="1" stop-color="#EA466B"/>
</linearGradient>
<linearGradient id="paint1_linear_124_3075" x1="73.29" y1="482.739" x2="109.195" y2="482.739" gradientUnits="userSpaceOnUse">
<stop stop-color="#F0784A"/>
<stop offset="1" stop-color="#EA466B"/>
</linearGradient>
<linearGradient id="paint2_linear_124_3075" x1="55.3848" y1="435.68" x2="121.297" y2="435.68" gradientUnits="userSpaceOnUse">
<stop stop-color="#F0784A"/>
<stop offset="1" stop-color="#EA466B"/>
</linearGradient>
<linearGradient id="paint3_linear_124_3075" x1="130.766" y1="408.827" x2="155.75" y2="408.827" gradientUnits="userSpaceOnUse">
<stop stop-color="#F0784A"/>
<stop offset="1" stop-color="#EA466B"/>
</linearGradient>
<linearGradient id="paint4_linear_124_3075" x1="120.547" y1="476.866" x2="166.712" y2="476.866" gradientUnits="userSpaceOnUse">
<stop stop-color="#F0784A"/>
<stop offset="1" stop-color="#EA466B"/>
</linearGradient>
<linearGradient id="paint5_linear_124_3075" x1="198.114" y1="100.534" x2="424.811" y2="100.534" gradientUnits="userSpaceOnUse">
<stop stop-color="#F0784A"/>
<stop offset="1" stop-color="#EA466B"/>
</linearGradient>
<linearGradient id="paint6_linear_124_3075" x1="257.474" y1="382.743" x2="365.527" y2="382.743" gradientUnits="userSpaceOnUse">
<stop stop-color="#F0784A"/>
<stop offset="1" stop-color="#EA466B"/>
</linearGradient>
<linearGradient id="paint7_linear_124_3075" x1="419.316" y1="315.356" x2="537.599" y2="315.356" gradientUnits="userSpaceOnUse">
<stop stop-color="#F0784A"/>
<stop offset="1" stop-color="#EA466B"/>
</linearGradient>
<linearGradient id="paint8_linear_124_3075" x1="417.337" y1="231.359" x2="479.707" y2="231.359" gradientUnits="userSpaceOnUse">
<stop stop-color="#F0784A"/>
<stop offset="1" stop-color="#EA466B"/>
</linearGradient>
<linearGradient id="paint9_linear_124_3075" x1="449.247" y1="224.307" x2="519.582" y2="224.307" gradientUnits="userSpaceOnUse">
<stop stop-color="#F0784A"/>
<stop offset="1" stop-color="#EA466B"/>
</linearGradient>
<linearGradient id="paint10_linear_124_3075" x1="490.38" y1="231.339" x2="545.179" y2="231.339" gradientUnits="userSpaceOnUse">
<stop stop-color="#F0784A"/>
<stop offset="1" stop-color="#EA466B"/>
</linearGradient>
<linearGradient id="paint11_linear_124_3075" x1="416.51" y1="249.879" x2="449.807" y2="249.879" gradientUnits="userSpaceOnUse">
<stop stop-color="#F0784A"/>
<stop offset="1" stop-color="#EA466B"/>
</linearGradient>
<linearGradient id="paint12_linear_124_3075" x1="507.546" y1="251.835" x2="543.453" y2="251.835" gradientUnits="userSpaceOnUse">
<stop stop-color="#F0784A"/>
<stop offset="1" stop-color="#EA466B"/>
</linearGradient>
<linearGradient id="paint13_linear_124_3075" x1="526.012" y1="117.578" x2="555.143" y2="117.578" gradientUnits="userSpaceOnUse">
<stop stop-color="#F0784A"/>
<stop offset="1" stop-color="#EA466B"/>
</linearGradient>
</defs>
</svg>
