<svg width="631" height="620" viewBox="0 0 631 620" fill="none" xmlns="http://www.w3.org/2000/svg">
<g clip-path="url(#clip0_162_5187)">
<path d="M386.37 36.6152H75.8631C68.5832 36.6152 62.6816 42.5148 62.6816 49.7923V223.803C62.6816 231.081 68.5832 236.98 75.8631 236.98H386.37C393.65 236.98 399.552 231.081 399.552 223.803V49.7923C399.552 42.5148 393.65 36.6152 386.37 36.6152Z" fill="white"/>
<path d="M399.552 49.7937V55.0203H62.6816V49.7937C62.6816 46.2794 64.0782 42.909 66.564 40.424C69.0498 37.939 72.4212 36.543 75.9367 36.543H386.37C389.873 36.5624 393.226 37.9671 395.695 40.4499C398.165 42.9328 399.552 46.2921 399.552 49.7937Z" fill="url(#paint0_linear_162_5187)"/>
<path d="M386.37 36.6152H75.8631C68.5832 36.6152 62.6816 42.5148 62.6816 49.7923V223.803C62.6816 231.081 68.5832 236.98 75.8631 236.98H386.37C393.65 236.98 399.552 231.081 399.552 223.803V49.7923C399.552 42.5148 393.65 36.6152 386.37 36.6152Z" stroke="#382915" stroke-linecap="round" stroke-linejoin="round"/>
<path d="M399.552 49.7937V55.0203H62.6816V49.7937C62.6816 46.2794 64.0782 42.909 66.564 40.424C69.0498 37.939 72.4212 36.543 75.9367 36.543H386.37C389.873 36.5624 393.226 37.9671 395.696 40.4499C398.165 42.9328 399.552 46.2921 399.552 49.7937V49.7937Z" stroke="#382915" stroke-linecap="round" stroke-linejoin="round"/>
<path d="M100.503 45.8189C100.503 46.4863 100.304 47.1388 99.9332 47.6935C99.562 48.2483 99.0344 48.6804 98.4172 48.9352C97.8001 49.1899 97.1212 49.2558 96.4666 49.1245C95.812 48.9933 95.211 48.6707 94.7399 48.1977C94.2689 47.7247 93.9488 47.1226 93.8203 46.4676C93.6919 45.8126 93.7608 45.1342 94.0183 44.5184C94.2758 43.9026 94.7104 43.377 95.267 43.0084C95.8235 42.6397 96.4771 42.4444 97.1447 42.4473C97.5869 42.4473 98.0248 42.5346 98.4332 42.7042C98.8415 42.8739 99.2124 43.1224 99.5244 43.4357C99.8364 43.749 100.083 44.1208 100.251 44.5297C100.419 44.9387 100.505 45.3768 100.503 45.8189Z" fill="#382915"/>
<path d="M118.103 45.8189C118.103 46.4863 117.904 47.1388 117.533 47.6935C117.162 48.2483 116.634 48.6804 116.017 48.9352C115.4 49.1899 114.721 49.2558 114.066 49.1245C113.412 48.9933 112.811 48.6707 112.34 48.1977C111.869 47.7247 111.549 47.1226 111.42 46.4676C111.292 45.8126 111.361 45.1342 111.618 44.5184C111.876 43.9026 112.31 43.377 112.867 43.0084C113.423 42.6397 114.077 42.4444 114.745 42.4473C115.187 42.4473 115.625 42.5346 116.033 42.7042C116.441 42.8739 116.812 43.1224 117.124 43.4357C117.436 43.749 117.683 44.1208 117.851 44.5297C118.019 44.9387 118.104 45.3768 118.103 45.8189Z" fill="#382915"/>
<path d="M132.344 49.1904C134.207 49.1904 135.717 47.6809 135.717 45.8188C135.717 43.9568 134.207 42.4473 132.344 42.4473C130.482 42.4473 128.972 43.9568 128.972 45.8188C128.972 47.6809 130.482 49.1904 132.344 49.1904Z" fill="#382915"/>
<path d="M183.347 69.5957H88.1018C85.1004 69.5957 82.6672 72.028 82.6672 75.0285V120.832C82.6672 123.832 85.1004 126.265 88.1018 126.265H183.347C186.348 126.265 188.781 123.832 188.781 120.832V75.0285C188.781 72.028 186.348 69.5957 183.347 69.5957Z" stroke="#382915" stroke-linecap="round" stroke-linejoin="round"/>
<path d="M88.8972 119.139H180.902" stroke="#382915" stroke-linecap="round" stroke-linejoin="round"/>
<path d="M106.409 108.316H95.731V118.991H106.409V108.316Z" fill="url(#paint1_linear_162_5187)" stroke="#382915" stroke-miterlimit="10"/>
<path d="M122.035 94.2852H111.357V119.138H122.035V94.2852Z" fill="url(#paint2_linear_162_5187)" stroke="#382915" stroke-miterlimit="10"/>
<path d="M139.635 98.5566H128.957V119.39H139.635V98.5566Z" fill="url(#paint3_linear_162_5187)" stroke="#382915" stroke-miterlimit="10"/>
<path d="M158.133 77.8105H147.455V118.667H158.133V77.8105Z" fill="url(#paint4_linear_162_5187)" stroke="#382915" stroke-miterlimit="10"/>
<path d="M176.616 78.1348H165.938V118.991H176.616V78.1348Z" fill="url(#paint5_linear_162_5187)" stroke="#382915" stroke-miterlimit="10"/>
<path d="M320.331 129.195C336.818 129.195 350.184 115.833 350.184 99.3513C350.184 82.8692 336.818 69.5078 320.331 69.5078C303.843 69.5078 290.477 82.8692 290.477 99.3513C290.477 115.833 303.843 129.195 320.331 129.195Z" fill="url(#paint6_linear_162_5187)"/>
<path d="M322.761 117.975V121.081H317.753V118.019C315.701 117.516 313.887 116.316 312.622 114.624C311.356 112.932 310.718 110.853 310.817 108.743V107.271L316.487 106.667V108.14C316.487 110.966 317.96 112.689 320.257 112.689C320.76 112.733 321.267 112.667 321.742 112.496C322.217 112.325 322.649 112.054 323.009 111.699C323.369 111.345 323.648 110.917 323.826 110.445C324.004 109.973 324.078 109.468 324.042 108.964C324.042 106.255 321.479 103.914 318.49 101.411C314.926 98.4666 311.361 94.9625 311.361 90.0156C311.361 85.0687 313.703 81.7413 317.753 80.7401V77.6777H322.761V80.7401C326.885 81.6824 329.271 85.157 329.271 90.0745V91.0756L323.6 91.694V90.5751C323.6 87.6305 322.437 86.0257 320.375 86.0257C318.313 86.0257 317.149 87.2919 317.149 89.7359C317.149 92.4596 319.756 94.7417 322.702 97.3035C326.207 100.248 329.83 103.752 329.83 108.699C329.931 110.829 329.277 112.927 327.984 114.623C326.691 116.319 324.842 117.506 322.761 117.975Z" fill="#382915"/>
<path d="M80.1782 155.209H88.8971" stroke="#382915" stroke-linecap="round" stroke-linejoin="round"/>
<path d="M80.1782 172.068H88.8971" stroke="#382915" stroke-linecap="round" stroke-linejoin="round"/>
<path d="M80.1782 188.91H88.8971" stroke="#382915" stroke-linecap="round" stroke-linejoin="round"/>
<path d="M80.1782 205.754H88.8971" stroke="#382915" stroke-linecap="round" stroke-linejoin="round"/>
<path d="M108.117 218.475V211.717" stroke="#382915" stroke-linecap="round" stroke-linejoin="round"/>
<path d="M121.932 218.475V211.717" stroke="#382915" stroke-linecap="round" stroke-linejoin="round"/>
<path d="M135.747 218.475V211.717" stroke="#382915" stroke-linecap="round" stroke-linejoin="round"/>
<path d="M149.576 218.475V211.717" stroke="#382915" stroke-linecap="round" stroke-linejoin="round"/>
<path d="M163.391 218.475V211.717" stroke="#382915" stroke-linecap="round" stroke-linejoin="round"/>
<path d="M177.205 218.475V211.717" stroke="#382915" stroke-linecap="round" stroke-linejoin="round"/>
<path d="M191.02 218.475V211.717" stroke="#382915" stroke-linecap="round" stroke-linejoin="round"/>
<path d="M204.85 218.475V211.717" stroke="#382915" stroke-linecap="round" stroke-linejoin="round"/>
<path d="M218.664 218.475V211.717" stroke="#382915" stroke-linecap="round" stroke-linejoin="round"/>
<path d="M232.479 218.475V211.717" stroke="#382915" stroke-linecap="round" stroke-linejoin="round"/>
<path d="M246.294 218.475V211.717" stroke="#382915" stroke-linecap="round" stroke-linejoin="round"/>
<path d="M260.123 218.475V211.717" stroke="#382915" stroke-linecap="round" stroke-linejoin="round"/>
<path d="M273.938 218.475V211.717" stroke="#382915" stroke-linecap="round" stroke-linejoin="round"/>
<path d="M287.753 218.475V211.717" stroke="#382915" stroke-linecap="round" stroke-linejoin="round"/>
<path d="M301.567 218.475V211.717" stroke="#382915" stroke-linecap="round" stroke-linejoin="round"/>
<path d="M314.867 218.475V211.717" stroke="#382915" stroke-linecap="round" stroke-linejoin="round"/>
<path d="M328.166 218.475V211.717" stroke="#382915" stroke-linecap="round" stroke-linejoin="round"/>
<path d="M341.45 218.475V211.717" stroke="#382915" stroke-linecap="round" stroke-linejoin="round"/>
<path d="M376.621 144.903V210.377C376.621 214.793 372.055 218.489 366.414 218.489H90.37C88.6876 218.55 87.0139 218.22 85.4806 217.525C83.9473 216.83 82.5961 215.79 81.5333 214.484C80.6064 213.313 80.0891 211.87 80.0605 210.377V144.903C80.0605 140.486 84.6262 136.791 90.2669 136.791H366.414C372.055 136.791 376.621 140.428 376.621 144.903Z" stroke="#E3664E" stroke-linecap="round" stroke-linejoin="round"/>
<path d="M292.613 18.1397L204.481 136.792L170.843 182.169L134.023 158.744L88.9856 218.49H88.3229C86.9089 218.49 85.5195 218.12 84.2924 217.418C83.0653 216.715 82.0431 215.704 81.3271 214.486L131.947 147.334L168.766 170.744L193.966 136.792L285.838 13.1191L292.613 18.1397Z" fill="#382915"/>
<path d="M270.256 19.6405L302.657 0L293.688 33.9512L287.973 18.2418L270.256 19.6405Z" fill="#382915"/>
<path d="M576.757 393.236H58.7935L0.736328 444.84" stroke="#382915" stroke-linecap="round" stroke-linejoin="round"/>
<path d="M59.1174 357.107V256.77" stroke="#382915" stroke-linecap="round" stroke-linejoin="round"/>
<path d="M59.1174 387.422V368.002" stroke="#382915" stroke-linecap="round" stroke-linejoin="round"/>
<path d="M545.564 149.144C545.564 149.144 545.564 143.078 537.066 134.583C528.568 126.088 523.118 121.244 523.118 121.244C523.118 121.244 518.877 135.187 526.756 143.682C532.554 149.671 538.845 155.163 545.564 160.098V149.144Z" fill="url(#paint7_linear_162_5187)"/>
<path d="M533.236 187.012C533.236 187.012 533.236 180.946 524.753 172.451C516.27 163.956 510.806 159.127 510.806 159.127C510.806 159.127 506.55 173.07 514.429 181.55C520.23 187.536 526.521 193.027 533.236 197.966V187.012Z" fill="url(#paint8_linear_162_5187)"/>
<path d="M545.033 159.464C545.033 159.464 545.667 153.443 555.019 145.89C564.371 138.337 570.292 134.111 570.292 134.111C570.292 134.111 573.046 148.481 564.297 156.034C557.9 161.366 551.067 166.153 543.87 170.345L545.033 159.464Z" fill="url(#paint9_linear_162_5187)"/>
<path d="M530.203 204.193C530.203 204.193 531.469 198.304 541.558 191.738C551.646 185.171 557.965 181.623 557.965 181.623C557.965 181.623 559.202 196.14 549.761 202.795C542.837 207.414 535.541 211.453 527.949 214.868L530.203 204.193Z" fill="url(#paint10_linear_162_5187)"/>
<path d="M532.942 252.956C532.942 252.956 532.942 246.89 541.425 238.409C549.908 229.929 555.387 225.07 555.387 225.07C555.387 225.07 559.629 239.028 551.749 247.508C545.947 253.484 539.656 258.965 532.942 263.895V252.956Z" fill="url(#paint11_linear_162_5187)"/>
<path d="M532.794 264.866C532.794 264.866 533.663 258.859 526.461 249.245C519.26 239.631 514.547 234.051 514.547 234.051C514.547 234.051 508.39 247.301 514.974 256.783C519.84 263.514 525.259 269.827 531.174 275.658L532.794 264.866Z" fill="#E3664E"/>
<path d="M524.429 300.129C524.429 300.129 524.429 294.064 532.912 285.583C541.396 277.103 546.874 272.244 546.874 272.244C546.874 272.244 551.116 286.202 543.222 294.682C537.433 300.675 531.146 306.166 524.429 311.098V300.129Z" fill="url(#paint12_linear_162_5187)"/>
<path d="M530.099 332.108C530.099 332.108 528.627 326.218 534.636 315.912C540.644 305.606 544.754 299.496 544.754 299.496C544.754 299.496 552.397 311.922 546.919 322.125C542.823 329.379 538.123 336.274 532.868 342.738L530.099 332.108Z" fill="url(#paint13_linear_162_5187)"/>
<path d="M546.403 147.584C545.974 153.899 545.197 160.185 544.076 166.415C540.718 183.744 532.294 194.933 528.98 210.584C525.666 226.234 535.254 246.419 532.677 266.531C530.099 286.643 522.264 297.832 524.473 311.26C526.682 324.687 538.465 361.038 538.465 361.038" stroke="#382915" stroke-width="1.18" stroke-linecap="round" stroke-linejoin="round"/>
<path d="M544.96 163.499L554.106 156.477" stroke="#382915" stroke-width="1.18" stroke-linecap="round" stroke-linejoin="round"/>
<path d="M545.372 155.416L541.558 148.6" stroke="#382915" stroke-width="1.18" stroke-linecap="round" stroke-linejoin="round"/>
<path d="M529.422 209.876C529.422 209.876 537.066 204.135 544.945 198.393" stroke="#382915" stroke-width="1.18" stroke-linecap="round" stroke-linejoin="round"/>
<path d="M533.236 197.891C533.236 197.891 526.859 185.377 519.628 177.088" stroke="#382915" stroke-width="1.18" stroke-linecap="round" stroke-linejoin="round"/>
<path d="M533.236 261.585C537.625 253.525 543.156 246.141 549.658 239.662" stroke="#382915" stroke-width="1.18" stroke-linecap="round" stroke-linejoin="round"/>
<path d="M531.749 270.093C529.424 264.613 526.651 259.334 523.457 254.31C519.039 247.714 518.317 246.875 518.317 246.875" stroke="#382915" stroke-width="1.18" stroke-linecap="round" stroke-linejoin="round"/>
<path d="M524.429 311.274C526.369 306.459 528.673 301.797 531.322 297.332C533.975 293.191 536.965 289.276 540.262 285.627" stroke="#382915" stroke-width="1.18" stroke-linecap="round" stroke-linejoin="round"/>
<path d="M532.868 342.664C532.424 338.064 533.217 333.428 535.166 329.237C538.347 323.082 541.97 314.985 543.458 311.805" stroke="#382915" stroke-width="1.18" stroke-linecap="round" stroke-linejoin="round"/>
<path d="M489.966 230.151C489.966 230.151 489.289 226.352 493.707 220.11C498.125 213.867 500.997 210.201 500.997 210.201C500.997 210.201 505.18 218.49 501.159 224.674C498.167 229.047 494.818 233.164 491.144 236.982L489.966 230.151Z" fill="url(#paint14_linear_162_5187)"/>
<path d="M501.807 252.558C501.807 252.558 501.13 248.759 505.533 242.502C509.937 236.245 512.897 232.623 512.897 232.623C512.897 232.623 517.08 240.912 513.059 247.096C510.072 251.472 506.722 255.589 503.044 259.404L501.807 252.558Z" fill="url(#paint15_linear_162_5187)"/>
<path d="M491.424 236.569C491.424 236.569 490.393 232.859 483.677 229.208C476.961 225.557 472.808 223.451 472.808 223.451C472.808 223.451 472.646 232.682 478.964 236.569C483.58 239.196 488.402 241.441 493.383 243.283L491.424 236.569Z" fill="url(#paint16_linear_162_5187)"/>
<path d="M505.607 262.998C505.607 262.998 504.134 259.42 497.138 256.417C490.143 253.413 485.724 251.867 485.724 251.867C485.724 251.867 486.534 261.099 493.206 264.249C498.049 266.399 503.065 268.137 508.199 269.446L505.607 262.998Z" fill="url(#paint17_linear_162_5187)"/>
<path d="M509.156 293.886C509.156 293.886 508.494 290.073 502.249 285.67C496.004 281.268 492.043 278.824 492.043 278.824C492.043 278.824 490.894 288.056 496.77 292.502C501.054 295.61 505.592 298.353 510.335 300.703L509.156 293.886Z" fill="url(#paint18_linear_162_5187)"/>
<path d="M510.526 301.321C510.526 301.321 509.333 297.655 512.809 290.853C516.285 284.051 518.626 280.031 518.626 280.031C518.626 280.031 523.943 287.643 520.836 294.327C518.482 299.081 515.738 303.631 512.632 307.931L510.526 301.321Z" fill="url(#paint19_linear_162_5187)"/>
<path d="M521.189 332.004C521.189 332.004 521.631 328.161 527.61 323.42C533.59 318.679 537.404 316.059 537.404 316.059C537.404 316.059 539.069 325.172 533.472 329.972C529.367 333.324 524.992 336.332 520.394 338.968L521.189 332.004Z" fill="url(#paint20_linear_162_5187)"/>
<path d="M519.598 322.536C519.598 322.536 518.95 318.738 512.706 314.336C506.461 309.933 502.514 307.475 502.514 307.475C502.514 307.475 501.365 316.721 507.227 321.152C511.51 324.267 516.047 327.015 520.791 329.368L519.598 322.536Z" fill="url(#paint21_linear_162_5187)"/>
<path d="M519.525 343.208C519.525 343.208 519.849 339.365 514.93 333.52C510.011 327.675 506.8 324.289 506.8 324.289C506.8 324.289 503.354 332.917 507.904 338.718C511.253 342.825 514.943 346.643 518.936 350.128L519.525 343.208Z" fill="url(#paint22_linear_162_5187)"/>
<path d="M489.303 229.252C490.264 233.164 491.434 237.023 492.808 240.81C496.8 251.322 503.265 257.417 507.08 266.884C510.894 276.351 507.08 290.028 510.835 302.366C514.591 314.704 520.762 320.829 520.821 329.53C520.88 338.232 517.448 362.259 517.448 362.259" stroke="#382915" stroke-width="1.18" stroke-linecap="round" stroke-linejoin="round"/>
<path d="M491.91 239.073L485.415 235.672" stroke="#382915" stroke-width="1.18" stroke-linecap="round" stroke-linejoin="round"/>
<path d="M490.761 234.066L492.425 229.369" stroke="#382915" stroke-width="1.18" stroke-linecap="round" stroke-linejoin="round"/>
<path d="M506.638 266.486C506.638 266.486 501.218 263.718 495.651 260.965" stroke="#382915" stroke-width="1.18" stroke-linecap="round" stroke-linejoin="round"/>
<path d="M502.985 259.479C504.578 254.435 506.68 249.566 509.259 244.947" stroke="#382915" stroke-width="1.18" stroke-linecap="round" stroke-linejoin="round"/>
<path d="M509.893 299.318C506.281 294.738 502.019 290.71 497.241 287.363" stroke="#382915" stroke-width="1.18" stroke-linecap="round" stroke-linejoin="round"/>
<path d="M511.749 304.502C512.615 300.82 513.783 297.216 515.239 293.725C517.301 289.102 517.64 288.498 517.64 288.498" stroke="#382915" stroke-width="1.18" stroke-linecap="round" stroke-linejoin="round"/>
<path d="M520.526 336.038C522.639 333.416 524.98 330.987 527.522 328.78C529.132 327.581 530.648 326.262 532.058 324.834" stroke="#382915" stroke-width="1.18" stroke-linecap="round" stroke-linejoin="round"/>
<path d="M520.821 329.53C519.065 326.713 517.096 324.035 514.93 321.521C512.818 319.213 510.517 317.086 508.052 315.16" stroke="#382915" stroke-width="1.18" stroke-linecap="round" stroke-linejoin="round"/>
<path d="M518.936 350.129C518.709 347.18 517.692 344.347 515.99 341.928C513.31 338.394 510.099 333.727 508.891 331.887" stroke="#382915" stroke-width="1.18" stroke-linecap="round" stroke-linejoin="round"/>
<path d="M547.213 403.764H508.538C507.757 403.764 507.007 403.454 506.455 402.902C505.903 402.35 505.592 401.601 505.592 400.82L500.114 358.123H555.652L550.1 400.82C550.1 401.591 549.798 402.331 549.258 402.881C548.718 403.432 547.984 403.749 547.213 403.764Z" fill="#37474F"/>
<path d="M555.24 365.306H500.113C498.959 365.307 497.851 364.856 497.025 364.049C496.199 363.243 495.722 362.146 495.695 360.993C495.718 359.849 496.183 358.759 496.994 357.952C497.804 357.145 498.896 356.683 500.04 356.664H555.24C555.81 356.672 556.372 356.792 556.896 357.017C557.419 357.243 557.893 357.57 558.29 357.979C558.686 358.388 558.999 358.871 559.208 359.401C559.418 359.931 559.521 360.497 559.511 361.066C559.467 362.182 559.002 363.239 558.209 364.026C557.417 364.813 556.356 365.27 555.24 365.306Z" fill="#37474F"/>
<path d="M431.04 194.181C431.031 206.259 426.931 217.978 419.408 227.429C411.885 236.88 401.382 243.505 389.61 246.226H389.463C387.99 246.536 386.65 246.801 385.207 247.021C382.675 247.382 380.121 247.564 377.563 247.566C363.783 247.231 350.664 241.59 340.943 231.819C331.223 222.048 325.653 208.903 325.395 195.125C325.136 181.347 330.21 168.002 339.557 157.874C348.904 147.745 361.802 141.616 375.56 140.766C376.046 140.766 376.547 140.766 377.033 140.766H378.049C385.307 140.786 392.482 142.305 399.125 145.227C408.623 149.41 416.698 156.266 422.365 164.959C428.032 173.652 431.046 183.805 431.04 194.181Z" fill="url(#paint23_linear_162_5187)"/>
<path opacity="0.4" d="M399.125 145.227C337.371 142.002 337.076 210.553 337.076 210.553C337.076 210.553 327.636 188.174 343.041 163.439C351.627 149.599 366.606 143.475 378.182 140.766C385.395 140.805 392.523 142.323 399.125 145.227Z" fill="white"/>
<path d="M431.04 194.181C431.044 204.673 427.961 214.935 422.173 223.688C416.386 232.441 408.15 239.299 398.492 243.407C388.834 247.515 378.181 248.693 367.859 246.792C357.536 244.891 348.002 239.997 340.442 232.718C332.882 225.44 327.631 216.099 325.343 205.859C323.055 195.618 323.832 184.932 327.575 175.129C331.319 165.327 337.865 156.842 346.397 150.732C354.929 144.622 365.072 141.156 375.56 140.766C376.208 140.766 376.856 140.766 377.519 140.766C391.701 140.758 405.305 146.38 415.341 156.397C425.378 166.413 431.024 180.004 431.04 194.181V194.181Z" stroke="#382915" stroke-linecap="round" stroke-linejoin="round"/>
<path d="M431.04 194.181C431.04 206.291 426.927 218.043 419.373 227.512C411.82 236.981 401.274 243.605 389.463 246.3C388.815 246.3 388.153 246.3 387.49 246.3C374.374 246.261 361.73 241.405 351.962 232.655C342.194 223.906 335.983 211.872 334.51 198.844C333.037 185.815 336.405 172.7 343.974 161.992C351.543 151.284 362.784 143.729 375.56 140.766C376.208 140.766 376.856 140.766 377.519 140.766C391.701 140.758 405.305 146.38 415.342 156.397C425.378 166.413 431.024 180.004 431.04 194.181V194.181Z" stroke="#382915" stroke-linecap="round" stroke-linejoin="round"/>
<path d="M396.002 227.646L397.387 233.285L388.138 235.552L386.753 229.899C378.462 229.899 371.819 224.525 369.713 215.912L369.08 213.335L379.272 209.64L379.979 212.364C381.26 217.605 384.706 220.137 389.021 219.077C389.971 218.93 390.876 218.579 391.676 218.047C392.476 217.516 393.152 216.818 393.656 216C394.16 215.183 394.48 214.266 394.596 213.313C394.711 212.36 394.618 211.393 394.323 210.479C393.086 205.459 387.298 202.308 380.627 199.039C372.718 195.211 364.559 190.353 362.32 181.225C360.081 172.096 362.88 164.867 369.919 161.187L368.535 155.533L377.784 153.266L379.169 158.919C387.195 158.802 393.175 164.072 395.369 173.215L395.826 175.056L385.619 178.766L385.119 176.705C383.764 171.169 380.892 168.813 377.092 169.755C373.292 170.698 371.716 173.569 372.821 178.089C374.058 183.109 379.92 186.142 386.518 189.528C394.353 193.489 402.586 198.215 404.839 207.358C406.975 216.015 403.455 223.848 396.002 227.646Z" stroke="#382915" stroke-miterlimit="10"/>
<path opacity="0.3" d="M396.002 227.646L397.387 233.285L388.138 235.552L386.753 229.899C378.462 229.899 371.819 224.525 369.713 215.912L369.08 213.335L379.272 209.64L379.979 212.364C381.26 217.605 384.706 220.137 389.021 219.077C389.971 218.93 390.876 218.579 391.676 218.047C392.476 217.516 393.152 216.818 393.656 216C394.16 215.183 394.48 214.266 394.596 213.313C394.711 212.36 394.618 211.393 394.323 210.479C393.086 205.459 387.298 202.308 380.627 199.039C372.718 195.211 364.559 190.353 362.32 181.225C360.081 172.096 362.88 164.867 369.919 161.187L368.535 155.533L377.784 153.266L379.169 158.919C387.195 158.802 393.175 164.072 395.369 173.215L395.826 175.056L385.619 178.766L385.119 176.705C383.764 171.169 380.892 168.813 377.092 169.755C373.292 170.698 371.716 173.569 372.821 178.089C374.058 183.109 379.92 186.142 386.518 189.528C394.353 193.489 402.586 198.215 404.839 207.358C406.975 216.015 403.455 223.848 396.002 227.646Z" fill="black"/>
<path d="M350.243 240.133L361.539 239.617" stroke="#382915" stroke-linecap="round" stroke-linejoin="round"/>
<path d="M344.808 236.377L354.676 235.553" stroke="#382915" stroke-linecap="round" stroke-linejoin="round"/>
<path d="M340.39 232.417L350.243 231.578" stroke="#382915" stroke-linecap="round" stroke-linejoin="round"/>
<path d="M339.035 157.094H347.474" stroke="#382915" stroke-linecap="round" stroke-linejoin="round"/>
<path d="M343.203 153.207L351.613 152.824" stroke="#382915" stroke-linecap="round" stroke-linejoin="round"/>
<path d="M348.476 149.305L357.342 148.48" stroke="#382915" stroke-linecap="round" stroke-linejoin="round"/>
<path opacity="0.3" d="M389.61 246.226H389.463C382.186 247.946 374.629 248.121 367.28 246.739C359.931 245.358 352.953 242.451 346.798 238.207C340.642 233.962 335.446 228.475 331.544 222.098C327.642 215.721 325.121 208.597 324.143 201.186C323.166 193.775 323.755 186.241 325.871 179.071C327.988 171.901 331.585 165.255 336.43 159.561C341.275 153.868 347.261 149.253 354.001 146.016C360.741 142.778 368.086 140.99 375.56 140.766C376.046 140.766 376.547 140.766 377.033 140.766C363.999 144.873 342.128 155.386 336.281 177.279C328.048 208.329 346.723 243.65 389.61 246.226Z" fill="black"/>
<path opacity="0.1" d="M431.04 194.181C431.031 206.259 426.931 217.978 419.408 227.429C411.885 236.88 401.382 243.505 389.61 246.226H389.463C387.99 246.535 386.65 246.801 385.207 247.021L399.125 145.227C408.623 149.41 416.698 156.266 422.365 164.959C428.032 173.651 431.046 183.805 431.04 194.181Z" fill="black"/>
<path d="M461.394 110.024C457.16 115.991 451.029 120.349 444.001 122.389C436.973 124.429 429.462 124.03 422.689 121.258L422.498 121.184C420.331 120.275 418.271 119.13 416.356 117.768C409.858 112.778 405.493 105.513 404.139 97.4339C402.785 89.3553 404.543 81.0639 409.06 74.2293C413.576 67.3946 420.515 62.5243 428.479 60.5989C436.443 58.6736 444.842 59.8363 451.983 63.8528C452.233 63.9853 452.469 64.1473 452.705 64.2945C452.94 64.4417 453.367 64.7215 453.691 64.9571C454.204 65.3011 454.695 65.6747 455.164 66.076C461.623 71.2187 465.867 78.6381 467.026 86.811C468.185 94.9838 466.169 103.29 461.394 110.024Z" fill="url(#paint24_linear_162_5187)"/>
<path opacity="0.4" d="M412.586 110.466C412.586 110.466 407.284 94.9037 414.324 83.4492C423.16 69.0796 436.695 62.5426 455.105 66.0761C455.105 66.0761 445.12 59.333 428.404 64.1179C411.687 68.9029 402.733 91.8855 412.586 110.466Z" fill="white"/>
<path d="M461.379 110.024C457.717 115.226 452.604 119.234 446.678 121.55C440.752 123.866 434.275 124.386 428.055 123.046C421.835 121.706 416.147 118.565 411.701 114.014C407.255 109.464 404.248 103.705 403.055 97.4571C401.862 91.2091 402.535 84.7482 404.991 78.8804C407.447 73.0125 411.577 67.9974 416.866 64.4607C422.154 60.924 428.368 59.0222 434.731 58.9925C441.093 58.9629 447.324 60.8068 452.646 64.2941C452.984 64.5002 453.323 64.7211 453.647 64.9567C460.638 69.9177 465.377 77.4463 466.826 85.8934C468.276 94.3405 466.317 103.017 461.379 110.024V110.024Z" stroke="#382915" stroke-linecap="round" stroke-linejoin="round"/>
<path d="M461.379 110.026C457.143 115.999 451.008 120.361 443.974 122.401C436.939 124.442 429.421 124.039 422.645 121.259C422.306 121.053 421.982 120.832 421.658 120.597C415.316 115.949 410.881 109.154 409.179 101.479C407.478 93.8037 408.628 85.7719 412.413 78.8812C416.198 71.9905 422.362 66.7113 429.753 64.0277C437.145 61.3441 445.26 61.4394 452.587 64.2959C452.925 64.502 453.264 64.7228 453.588 64.9584C460.589 69.9105 465.339 77.4348 466.8 85.8825C468.26 94.3301 466.311 103.012 461.379 110.026Z" stroke="#382915" stroke-linecap="round" stroke-linejoin="round"/>
<path d="M432.395 114.325L431.099 117.593L425.738 115.488L427.108 112.249C425.117 110.846 423.677 108.796 423.032 106.448C422.387 104.101 422.578 101.603 423.573 99.3807L424.162 97.9084L430.495 99.6458L429.876 101.192C428.684 104.225 429.508 106.683 432.012 107.67C432.532 107.926 433.101 108.066 433.681 108.082C434.26 108.097 434.836 107.987 435.369 107.759C435.902 107.531 436.38 107.191 436.769 106.761C437.158 106.331 437.449 105.823 437.623 105.27C438.772 102.325 437.02 98.7771 434.855 94.8313C432.292 90.1789 429.95 84.9375 432.041 79.6372C434.133 74.3369 438.021 71.7604 442.793 72.3935L444.074 69.125L449.435 71.2304L448.139 74.4989C452.16 77.2521 453.264 81.9487 451.173 87.2343L450.761 88.3091L444.428 86.5717L444.899 85.3792C446.165 82.1696 445.562 80.02 443.426 79.1514C441.291 78.2827 439.435 79.1513 438.404 81.7868C437.255 84.7314 439.096 88.2354 441.173 92.2106C443.662 96.9073 446.077 102.105 443.986 107.405C443.188 109.745 441.585 111.725 439.462 112.993C437.339 114.261 434.834 114.732 432.395 114.325V114.325Z" stroke="#382915" stroke-miterlimit="10"/>
<path opacity="0.3" d="M432.395 114.325L431.099 117.593L425.738 115.488L427.108 112.249C425.117 110.846 423.677 108.796 423.032 106.448C422.387 104.101 422.578 101.603 423.573 99.3807L424.162 97.9084L430.495 99.6458L429.876 101.192C428.684 104.225 429.508 106.683 432.012 107.67C432.532 107.926 433.101 108.066 433.681 108.082C434.26 108.097 434.836 107.987 435.369 107.759C435.902 107.531 436.38 107.191 436.769 106.761C437.158 106.331 437.449 105.823 437.623 105.27C438.772 102.325 437.02 98.7771 434.855 94.8313C432.292 90.1789 429.95 84.9375 432.041 79.6372C434.133 74.3369 438.021 71.7604 442.793 72.3935L444.074 69.125L449.435 71.2304L448.139 74.4989C452.16 77.2521 453.264 81.9487 451.173 87.2343L450.761 88.3091L444.428 86.5717L444.899 85.3792C446.165 82.1696 445.562 80.02 443.426 79.1514C441.291 78.2827 439.435 79.1513 438.404 81.7868C437.255 84.7314 439.096 88.2354 441.173 92.2106C443.662 96.9073 446.077 102.105 443.986 107.405C443.188 109.745 441.585 111.725 439.462 112.993C437.339 114.261 434.834 114.732 432.395 114.325Z" fill="black"/>
<path opacity="0.3" d="M451.939 63.8532C443.102 62.2779 431.909 61.3945 425.856 65.3255C414.766 72.4367 407.873 81.403 407.976 95.9346C408.079 110.466 421.658 120.655 421.658 120.655L422.454 121.243C418.235 119.591 414.411 117.073 411.227 113.851C408.043 110.629 405.57 106.776 403.968 102.539C402.366 98.3027 401.67 93.7775 401.926 89.2558C402.182 84.734 403.384 80.3162 405.454 76.2875C407.524 72.2588 410.416 68.7089 413.943 65.8668C417.47 63.0247 421.555 60.9537 425.933 59.7875C430.31 58.6213 434.884 58.3859 439.358 59.0963C443.833 59.8068 448.108 61.4473 451.909 63.9121L451.939 63.8532Z" fill="black"/>
<path opacity="0.1" d="M461.394 110.024C457.16 115.991 451.029 120.349 444.001 122.389C436.973 124.429 429.462 124.03 422.689 121.258L422.498 121.184C421.491 120.745 420.508 120.254 419.552 119.712L455.091 66.0762C461.561 71.2083 465.82 78.6227 466.992 86.7961C468.164 94.9695 466.161 103.281 461.394 110.024Z" fill="black"/>
<path d="M444.781 524.639C431.063 541.121 414.716 555.224 396.4 566.379C390.693 569.788 384.792 572.86 378.727 575.581C336.841 594.397 289.152 595.619 244.482 584.856C150.725 562.139 100.974 479.395 94.6559 387.568C92.9474 362.73 89.1476 335.935 99.2068 312.319C109.266 288.703 129.605 274.039 152.625 263.836C169.326 256.475 187.368 251.41 203.76 247.346C233.42 240.019 264.707 243.247 292.245 256.475C311.523 265.618 325.264 281.504 341.48 294.872C343.198 296.286 344.926 297.694 346.664 299.098C363.042 312.286 380.26 324.394 398.212 335.346C425.473 351.953 453.382 367.648 470.79 395.563C498.641 439.967 475.209 488.421 444.781 524.639Z" fill="#E3664E"/>
<path opacity="0.4" d="M444.781 524.639C431.063 541.121 414.716 555.224 396.4 566.379C390.693 569.788 384.792 572.86 378.727 575.581C336.841 594.397 289.152 595.619 244.482 584.856C150.725 562.139 100.974 479.395 94.6559 387.568C92.9474 362.73 89.1476 335.935 99.2068 312.319C109.266 288.703 129.605 274.039 152.625 263.836C169.326 256.475 187.368 251.41 203.76 247.346C233.42 240.019 264.707 243.247 292.245 256.475C311.523 265.618 325.264 281.504 341.48 294.872C343.198 296.286 344.926 297.694 346.664 299.098C363.042 312.286 380.26 324.394 398.212 335.346C425.473 351.953 453.382 367.648 470.79 395.563C498.641 439.967 475.209 488.421 444.781 524.639Z" fill="white"/>
<path d="M346.723 299.025C344.985 297.631 343.257 296.222 341.539 294.799C325.338 281.372 311.582 265.545 292.304 256.402C264.765 243.175 233.479 239.947 203.819 247.273C164.834 256.946 116.468 271.831 99.251 312.246C89.2066 335.803 92.9917 362.657 94.7001 387.48C101.018 479.337 150.754 562.095 244.526 584.768C295.558 597.121 350.567 593.749 396.341 566.321C414.683 555.195 431.052 541.106 444.781 524.625C475.268 488.421 498.729 439.968 470.967 395.49C453.544 367.516 425.65 351.895 398.374 335.273C380.39 324.32 363.137 312.212 346.723 299.025V299.025Z" stroke="#382915" stroke-miterlimit="10"/>
<path d="M204.614 462.832C196.807 465.17 189.23 468.215 181.977 471.931" stroke="#382915" stroke-linecap="round" stroke-linejoin="round"/>
<path d="M252.465 453.732C241.031 454.706 229.681 456.497 218.502 459.092" stroke="#382915" stroke-linecap="round" stroke-linejoin="round"/>
<path d="M242.465 451.362C242.465 451.362 198.443 425.773 145.334 446.282" stroke="#382915" stroke-linecap="round" stroke-linejoin="round"/>
<path opacity="0.1" d="M444.781 524.638C431.063 541.12 414.716 555.223 396.4 566.378C390.693 569.787 384.792 572.86 378.727 575.58C373.936 574.126 369.231 572.406 364.632 570.427C337.15 558.649 314.086 538.728 291.538 519.073C277.944 507.295 264.144 495.222 247.87 487.463C225.855 477.066 200.813 475.01 177.397 481.677C189.509 468.015 205.97 458.955 223.996 456.029C212.375 445.458 196.175 441.012 180.445 440.717C164.716 440.423 156.056 442.366 140.68 445.812C145.806 436.374 159.458 427.82 170.224 428.07C159.983 427.924 149.76 427.182 139.605 425.847C125.702 423.609 119.502 407.281 117.425 393.457C111.681 355.177 117.499 314.409 138.383 281.871C142.521 275.373 147.312 269.315 152.683 263.791C169.385 256.43 187.426 251.365 203.819 247.301C233.479 239.974 264.765 243.202 292.303 256.43C311.582 265.573 325.323 281.459 341.539 294.827C343.257 296.241 344.985 297.649 346.723 299.053C363.1 312.241 380.319 324.349 398.27 335.301C425.532 351.908 453.441 367.603 470.849 395.518C498.641 439.967 475.209 488.42 444.781 524.638Z" fill="black"/>
<path d="M460.01 523.549C468.264 530.382 476.898 536.743 485.872 542.6C503.383 543.778 495.533 564.95 495.533 564.95L480.54 574.549C480.54 574.549 454.929 554.202 440.952 547.592C426.975 540.981 460.01 523.549 460.01 523.549Z" fill="white"/>
<path opacity="0.3" d="M335.633 300.702C335.633 300.702 333.218 276.954 329.403 270.27L271.257 258.403V253.898C271.257 253.898 272.598 246.065 259.637 241.163C246.677 236.26 219.666 242.635 212.7 247.891C205.733 253.147 208.281 262.231 208.281 262.231C208.281 262.231 184.849 274.201 174.319 278.618C165.703 282.583 157.306 287.007 149.164 291.869C149.164 291.869 144.407 346.447 145.334 359.123C146.262 371.8 144.583 383.725 145.658 390.748C146.734 397.771 147.602 401.776 154.981 407.739C162.36 413.701 169.031 422.535 188.354 413.79L185.659 411.67L312.819 368.973L335.633 300.702Z" fill="black"/>
<path d="M335.633 300.702C335.633 300.702 333.218 276.954 329.403 270.27L271.257 258.403V253.898C271.257 253.898 272.598 246.065 259.637 241.163C246.677 236.26 219.666 242.635 212.7 247.891C205.733 253.147 208.281 262.231 208.281 262.231C208.281 262.231 184.849 274.201 174.319 278.618C165.703 282.583 157.306 287.007 149.164 291.869C149.164 291.869 144.407 346.447 145.334 359.123C146.262 371.8 144.583 383.725 145.658 390.748C146.734 397.771 147.602 401.776 154.981 407.739C162.36 413.701 169.031 422.535 188.354 413.79L185.659 411.67L312.819 368.973L335.633 300.702Z" fill="#E3664E"/>
<path d="M335.633 300.702C335.633 300.702 333.218 276.954 329.403 270.27L271.257 258.403V253.898C271.257 253.898 272.598 246.065 259.637 241.163C246.677 236.26 219.666 242.635 212.7 247.891C205.733 253.147 208.281 262.231 208.281 262.231C208.281 262.231 184.849 274.201 174.319 278.618C165.703 282.583 157.306 287.007 149.164 291.869C149.164 291.869 144.407 346.447 145.334 359.123C146.262 371.8 144.583 383.725 145.658 390.748C146.734 397.771 147.602 401.776 154.981 407.739C162.36 413.701 169.031 422.535 188.354 413.79L185.659 411.67L312.819 368.973L335.633 300.702Z" fill="url(#paint25_linear_162_5187)"/>
<path opacity="0.1" d="M330.169 273.199H305.839C303.549 273.197 301.333 274.009 299.588 275.49C297.842 276.97 296.68 279.024 296.31 281.282L284.321 353.425C284.321 353.425 267.811 354.794 256.117 363.333C244.423 371.873 215.66 311.081 170.195 311.008C170.195 311.008 183.288 340.881 186.189 364.732C186.189 364.732 157.779 361.655 153.052 372.756C148.324 383.857 155.202 404.705 167.205 396.652C179.208 388.598 190.475 375.097 198.576 383.563C206.676 392.028 242.465 396.652 242.465 396.652L297.65 368.928L319.049 358.872L330.169 273.199Z" fill="black"/>
<path opacity="0.4" d="M252.921 237.467C252.921 237.467 266.736 241.295 268.975 245.918C271.213 250.541 270.992 262.29 270.992 262.29C267.633 270.129 262.555 277.113 256.132 282.725L245.822 262.29L246.75 285.479C246.75 285.479 227.192 282.225 218.9 275.967L210.608 269.784C210.608 269.784 207.044 258.005 207.545 254.03C208.046 250.055 222.98 241.81 222.98 241.81L252.921 237.467Z" fill="white"/>
<path d="M483.073 594.809C482.705 593.955 488.758 583.281 484.016 572.386C479.274 561.491 471.718 565.701 471.718 565.701C471.718 565.701 450.201 552.009 441.158 547.695C434.646 544.417 428.371 540.688 422.38 536.535L412.822 549.388L421.658 576.729L483.073 594.809Z" fill="#E3664E"/>
<path d="M470.864 565.039L498.493 581.911C498.493 581.911 517.919 569.441 527.198 560.843C536.477 552.245 557.199 533.944 557.199 533.944L570.454 516.114C570.454 516.114 561.264 504.748 545.947 513.876C526.152 525.655 502.013 542.748 485.901 542.586C485.901 542.586 489.082 562.359 470.893 565.024" fill="#E3664E"/>
<path d="M248.223 166.074C248.223 166.074 260.771 185.037 263.054 191.177C265.337 197.316 267.178 206.415 266.707 210.773C266.235 215.131 261.67 238.57 259.343 239.262L257.119 241.765L258.591 251.688C258.591 251.688 248.783 268.649 219.946 256.223C219.946 256.223 218.812 236.421 215.321 230.208C211.831 223.994 206.558 231.385 201.315 213.438C196.072 195.491 212.803 176.719 212.803 176.719L248.223 166.074Z" fill="white"/>
<path opacity="0.5" d="M558.48 510.594C558.48 510.594 544.282 513.052 539.673 521.459C535.063 529.866 526.211 545.502 523.192 553.055C520.173 560.608 495.209 578.85 495.209 578.85L498.523 581.927C498.523 581.927 518.862 569.353 531.116 557.413C543.369 545.473 570.454 515.452 570.454 515.452C570.454 515.452 568.495 513.509 558.48 510.594Z" fill="white"/>
<path opacity="0.5" d="M416.268 544.678L412.763 549.389L423.573 571.812L483.073 593.175L485.828 584.459C485.828 584.459 486.755 575.625 465.886 568.926C445.017 562.228 432.292 557.781 426.356 553.158C420.421 548.535 416.268 544.678 416.268 544.678Z" fill="white"/>
<path d="M219.99 378.234C219.99 378.234 201.786 375.511 193.288 390.396C184.79 405.281 185.659 411.729 185.659 411.729C185.659 411.729 197.677 422.654 214.217 422.035C230.756 421.417 254.866 402.41 262.715 396.255C270.565 390.101 290.36 372.434 303.865 376.07L305.338 363.305C305.338 363.305 304.027 357.593 292.466 359.124C280.904 360.655 276.383 367.251 272.671 367.251C268.96 367.251 265.425 363.673 257.944 376.468C257.914 376.527 231.654 381.179 219.99 378.234Z" fill="white"/>
<path d="M243.657 193.357C244.036 195.74 244.588 198.092 245.307 200.395C245.589 201.536 246.117 202.601 246.853 203.516C248.238 204.989 250.476 205.371 252.509 205.681C252.674 205.663 252.841 205.684 252.996 205.744C253.152 205.803 253.29 205.899 253.401 206.022C253.512 206.146 253.592 206.295 253.634 206.455C253.676 206.616 253.679 206.785 253.643 206.947C253.632 209.259 252.941 211.517 251.655 213.44" stroke="#382915" stroke-linecap="round" stroke-linejoin="round"/>
<path d="M428.492 529.469L416.268 544.678C416.268 544.678 429.67 557.06 443.559 561.638C457.447 566.217 481.719 574.889 485.769 581.573L484.208 573.579C484.208 573.579 446.239 550.287 437.506 544.722C434.94 543.034 432.793 540.783 431.231 538.139C429.669 535.495 428.732 532.53 428.492 529.469Z" fill="url(#paint26_linear_162_5187)"/>
<path d="M470.864 565.039L495.18 578.85C495.18 578.85 507.153 570.664 513.074 564.568C518.995 558.473 526.211 551.818 530.674 538.258C536.845 519.501 554.533 510.594 554.533 510.594C554.533 510.594 529.937 522.151 517.154 531.206C504.37 540.261 491.881 544.074 484.635 543.455C484.635 543.485 490.437 561.903 470.864 565.039Z" fill="url(#paint27_linear_162_5187)"/>
<path d="M235.071 216.781C235.071 216.781 244.63 224.275 254.571 221.463C254.571 221.463 245.189 240.014 235.071 216.781Z" fill="white" stroke="#382915" stroke-linecap="round" stroke-linejoin="round"/>
<path d="M234.777 200.586C235.056 202.647 234.438 204.443 233.392 204.576C232.346 204.708 231.286 203.104 231.006 201.101C230.726 199.099 231.36 197.244 232.391 197.111C233.422 196.979 234.511 198.525 234.777 200.586Z" fill="#382915"/>
<path d="M255.528 196.847C255.808 198.908 255.19 200.689 254.144 200.836C253.098 200.984 252.038 199.364 251.758 197.347C251.478 195.33 252.111 193.504 253.142 193.357C254.173 193.21 255.263 194.785 255.528 196.847Z" fill="#382915"/>
<path d="M233.274 191.856C233.274 191.856 227.707 188.985 223.745 195.125" stroke="#382915" stroke-linecap="round" stroke-linejoin="round"/>
<path d="M247.531 188.026C247.531 188.026 253.422 182.962 256.824 188.026" stroke="#382915" stroke-linecap="round" stroke-linejoin="round"/>
<path d="M214.349 210.789C214.349 210.789 210.755 205.503 206.985 205.68C203.215 205.857 201.698 211.142 203.068 216.251C204.437 221.36 210.063 228.545 214.334 227.853C216.744 227.544 218.943 226.321 220.476 224.437" stroke="#382915" stroke-linecap="round" stroke-linejoin="round"/>
<path d="M248.65 170.359C252.686 173.687 256.927 177.338 258.96 182.256C260.756 186.437 261.169 191.089 262.804 195.3C264.556 199.82 266.486 204.561 266.633 209.493C266.555 214.056 265.957 218.596 264.851 223.024C264.234 226.857 263.323 230.637 262.126 234.331C260.138 239.616 256.471 242.87 251.537 245.388C247.958 247.213 241.993 249.805 238.134 247.361C235.881 245.888 232.494 241.678 229.681 237.805" stroke="#382915" stroke-linecap="round" stroke-linejoin="round"/>
<path d="M214.349 227.854C214.349 227.854 220.667 243.372 219.136 254.355" stroke="#382915" stroke-linecap="round" stroke-linejoin="round"/>
<path d="M212.714 208.183C213.558 207.559 214.227 206.729 214.658 205.773C215.088 204.816 215.266 203.766 215.174 202.721C214.938 200.336 213.274 198.142 213.613 195.757C213.877 194.608 214.303 193.502 214.879 192.473C215.733 190.494 216.109 188.342 215.976 186.191C215.843 184.04 215.205 181.95 214.113 180.091C214.113 180.091 234.232 181.034 243.657 175.027C253.083 169.02 260.256 153.723 254.571 146.391C248.886 139.058 237.766 149.055 229.533 150.174C221.301 151.293 192.007 155.946 187.338 167.268C182.669 178.59 189.783 182.594 190.004 193.357C190.225 204.119 190.21 224.496 206.322 222.641C206.322 222.641 200.299 214.852 204.481 206.814C207.339 203.398 212.714 208.183 212.714 208.183Z" fill="#382915"/>
<path d="M252.17 159.111C254.903 161.238 257.168 163.904 258.825 166.943C260.482 169.983 261.496 173.331 261.802 176.779C262.701 184.847 277.031 200.527 266.707 209.479C266.707 209.479 264.291 199.968 262.877 195.286C261.464 190.604 259.667 182.035 257.296 179.09C254.924 176.146 242.332 165.84 242.332 165.84L252.17 159.111Z" fill="#382915"/>
<path d="M216.205 253.958C216.205 253.958 226.131 260.48 244.571 260.76L246.721 285.479C246.721 285.479 225.999 283.889 210.608 269.785C210.608 269.785 206.455 258.772 207.545 254.031C208.635 249.29 218.532 244.594 218.532 244.594" stroke="#382915" stroke-linecap="round" stroke-linejoin="round"/>
<path d="M257.914 242.901L258.503 251.734C254.619 255.789 249.851 258.893 244.571 260.804L256.117 282.771C256.117 282.771 269.873 272.067 271.243 260.804C271.243 260.804 271.361 249.261 268.975 245.963C266.589 242.665 257.826 241.119 257.826 241.119" stroke="#382915" stroke-linecap="round" stroke-linejoin="round"/>
<path opacity="0.8" d="M202.037 174.57C203.509 170.875 207.53 168.681 211.477 168.077C215.424 167.474 219.43 167.915 223.421 167.812C228.927 167.766 234.319 166.24 239.033 163.395C243.751 160.504 247.138 155.87 248.459 150.498" stroke="white" stroke-linecap="round" stroke-linejoin="round"/>
<path opacity="0.8" d="M192.522 173.863C195.026 166.296 203.097 161.643 211.035 160.966C214.968 160.627 218.929 161.098 222.818 160.642C226.706 160.185 230.815 158.551 232.862 155.18" stroke="white" stroke-linecap="round" stroke-linejoin="round"/>
<path d="M188.354 413.848C169.208 423.771 162.404 413.568 151.741 405.117C141.078 396.666 148.059 381.56 145.85 357.341C143.641 333.122 149.164 291.868 149.164 291.868C149.164 291.868 153.95 290.764 167.176 282.666C180.401 274.568 208.281 262.23 208.281 262.23" stroke="#382915" stroke-linecap="round" stroke-linejoin="round"/>
<path d="M207.324 377.263C207.324 377.263 204.29 367.649 195.704 367.384C187.117 367.118 173.612 370.991 163.995 389.218" stroke="#382915" stroke-linecap="round" stroke-linejoin="round"/>
<path d="M193.745 366.75C193.235 366.722 192.735 366.597 192.272 366.382C185.199 363.845 177.525 363.501 170.254 365.396" stroke="#382915" stroke-linecap="round" stroke-linejoin="round"/>
<path d="M165.276 305.119C180.858 322.33 188.472 345.122 195.674 367.206" stroke="#382915" stroke-linecap="round" stroke-linejoin="round"/>
<path d="M271.258 258.463C271.258 258.463 299.535 265.191 313.335 266.796C327.135 268.401 329.403 270.33 329.403 270.33L331.966 279.958" stroke="#382915" stroke-linecap="round" stroke-linejoin="round"/>
<path d="M403.027 275.246L306.722 278.942L298.857 377.954H315.353L398.977 359.241L409.493 277.616L403.027 275.246Z" fill="white"/>
<path d="M303.865 380.898L409.199 279.957L398.977 359.24L303.865 380.898Z" fill="#E3664E"/>
<path opacity="0.7" d="M303.865 380.898L409.199 279.957L398.977 359.24L303.865 380.898Z" fill="white"/>
<path d="M303.865 378.234L312.289 282.726L409.493 277.617L398.977 359.241L303.865 378.234Z" stroke="#382915" stroke-linecap="round" stroke-linejoin="round"/>
<path d="M368.52 323.892C367.857 329.707 364.75 334.198 361.583 333.771C358.417 333.344 356.355 328.412 357.018 322.596C357.681 316.781 360.788 312.364 363.955 312.717C367.121 313.07 369.168 318.076 368.52 323.892Z" fill="#382915"/>
<path d="M398.977 359.241C398.977 359.241 443.47 357.975 457.403 367.162C471.335 376.349 479.495 422.417 477.565 446.901C475.636 471.386 458.846 527.525 458.846 527.525L426.68 491.041C426.68 491.041 410.833 433.459 419.479 410.904C419.479 410.904 376.768 413.304 359.949 407.959C359.949 407.959 344.882 383.313 319.049 375.142L398.977 359.241Z" fill="#263238"/>
<path d="M465.636 528.467C454.207 517.809 443.948 505.964 435.031 493.132C419.464 469.089 397.946 446.018 375.81 428.012C357.96 413.539 353.925 389.983 331.921 378.175C295.485 358.623 263.967 397.462 252.185 405.309C240.403 413.157 219.99 422.02 219.99 422.02C219.99 422.02 227.354 449.993 249.313 453.306C271.272 456.619 293.349 441.528 303.806 448.889C314.263 456.251 322.024 488.641 356.605 507.781C384.868 523.358 423.367 538.567 443.249 548.8C447.668 551.096 450.967 553.511 453.47 554.88C460.334 558.62 467.668 563.037 474.575 567.395L498.493 581.912C498.493 581.912 522.426 567.763 531.616 554.718C532.853 552.966 535.387 548.284 537.773 543.779C542.986 533.944 549.555 525.11 558.671 520.222C564.99 516.836 570.601 515.805 570.454 515.467C569.835 514.333 558.421 508.503 550.645 511.698C534.223 518.47 501.365 544.545 485.842 542.616C478.621 538.633 471.847 533.89 465.636 528.467Z" stroke="#382915" stroke-miterlimit="10"/>
<path d="M465.636 528.468C451.305 534.269 445.517 543.191 443.323 548.815C423.44 538.583 384.942 523.374 356.679 507.797C322.098 488.657 314.395 456.178 303.88 448.905C293.364 441.632 271.199 456.752 249.387 453.322C227.575 449.891 220.078 422.035 220.078 422.035C220.078 422.035 240.476 413.202 252.258 405.339C264.041 397.477 291.214 358.638 331.995 378.19C354.529 388.982 358.034 413.525 375.884 428.028C397.976 445.975 419.537 469.105 435.105 493.147C443.974 505.99 454.21 517.833 465.636 528.468Z" fill="#263238"/>
<path d="M357.887 403.661C357.887 403.661 346.855 381.253 329.153 376.895" stroke="white" stroke-linecap="round" stroke-linejoin="round"/>
<path d="M300.124 359.035C287.959 356.385 274.601 369.827 268.975 367.31C264.792 365.44 257.914 376.526 257.914 376.526C246.587 378.151 235.134 378.723 223.701 378.234C207.324 377.204 199.548 380.384 193.745 389.159L185.659 410.595C185.659 410.595 207.015 429.735 229.843 418.59C252.671 407.445 282.981 373.832 303.865 373.95" stroke="#382915" stroke-linecap="round" stroke-linejoin="round"/>
<path d="M469.936 564.465C469.936 564.465 489.922 566.114 485.239 542.248" stroke="#382915" stroke-miterlimit="10"/>
<path d="M564.077 527.524C562.604 530.469 544.282 546.031 528.509 559.664C528.509 559.444 532.927 551.14 534.768 547.591C538.951 539.744 549.791 518.263 570.439 515.451C573.355 517.203 564.077 527.524 564.077 527.524Z" fill="#382915"/>
<path d="M556.212 510.74C535.343 514.907 530.6 541.659 523.192 553.054C515.784 564.45 495.209 579.909 495.209 579.909" stroke="#382915" stroke-miterlimit="10"/>
<path d="M483.957 573.078C487.345 579.306 485.739 586.505 483.957 591.025C483.077 593.27 481.982 595.425 480.688 597.459C451.143 592.615 421.599 576.744 421.599 576.744L413.97 553.187L412.763 549.418L424.236 533.988" stroke="#382915" stroke-miterlimit="10"/>
<path d="M483.957 591.01C483.077 593.255 481.982 595.409 480.688 597.444C451.144 592.6 421.6 576.729 421.6 576.729L413.97 553.172C419.325 560.424 426.86 565.774 435.473 568.44C449.862 572.488 476.417 577.273 483.957 591.01Z" fill="#382915"/>
<path d="M298.857 374.509L306.722 278.942L403.027 275.246L409.493 277.616" stroke="#382915" stroke-linecap="round" stroke-linejoin="round"/>
<path d="M485.032 553.054C485.032 553.054 498.199 555.395 508.302 547.165C518.406 538.934 534.739 520.266 534.739 520.266" stroke="#382915" stroke-miterlimit="10"/>
<path d="M498.494 541.143C498.494 541.143 495.327 545.928 498.494 555.542" stroke="#382915" stroke-linecap="round" stroke-linejoin="round"/>
<path d="M507.831 536.594C506.391 541.371 506.818 546.517 509.024 550.993" stroke="#382915" stroke-linecap="round" stroke-linejoin="round"/>
<path d="M518.965 530.145C518.965 530.145 516.3 538.154 518.965 545.206" stroke="#382915" stroke-linecap="round" stroke-linejoin="round"/>
<path d="M426.843 531.971L416.268 544.677C416.268 544.677 426.916 556.278 441.909 561.107C456.902 565.937 483.736 574.137 485.946 582.868" stroke="#382915" stroke-miterlimit="10"/>
</g>
<defs>
<linearGradient id="paint0_linear_162_5187" x1="62.6816" y1="45.8185" x2="399.552" y2="45.8185" gradientUnits="userSpaceOnUse">
<stop stop-color="#F0784A"/>
<stop offset="1" stop-color="#EA466B"/>
</linearGradient>
<linearGradient id="paint1_linear_162_5187" x1="95.731" y1="113.646" x2="106.409" y2="113.646" gradientUnits="userSpaceOnUse">
<stop stop-color="#F0784A"/>
<stop offset="1" stop-color="#EA466B"/>
</linearGradient>
<linearGradient id="paint2_linear_162_5187" x1="111.357" y1="106.711" x2="122.035" y2="106.711" gradientUnits="userSpaceOnUse">
<stop stop-color="#F0784A"/>
<stop offset="1" stop-color="#EA466B"/>
</linearGradient>
<linearGradient id="paint3_linear_162_5187" x1="128.957" y1="108.981" x2="139.635" y2="108.981" gradientUnits="userSpaceOnUse">
<stop stop-color="#F0784A"/>
<stop offset="1" stop-color="#EA466B"/>
</linearGradient>
<linearGradient id="paint4_linear_162_5187" x1="147.455" y1="98.2461" x2="158.118" y2="98.2461" gradientUnits="userSpaceOnUse">
<stop stop-color="#F0784A"/>
<stop offset="1" stop-color="#EA466B"/>
</linearGradient>
<linearGradient id="paint5_linear_162_5187" x1="165.938" y1="98.5556" x2="176.616" y2="98.5556" gradientUnits="userSpaceOnUse">
<stop stop-color="#F0784A"/>
<stop offset="1" stop-color="#EA466B"/>
</linearGradient>
<linearGradient id="paint6_linear_162_5187" x1="290.477" y1="99.3513" x2="350.184" y2="99.3513" gradientUnits="userSpaceOnUse">
<stop stop-color="#F0784A"/>
<stop offset="1" stop-color="#EA466B"/>
</linearGradient>
<linearGradient id="paint7_linear_162_5187" x1="521.984" y1="140.678" x2="545.564" y2="140.678" gradientUnits="userSpaceOnUse">
<stop stop-color="#F0784A"/>
<stop offset="1" stop-color="#EA466B"/>
</linearGradient>
<linearGradient id="paint8_linear_162_5187" x1="509.657" y1="178.547" x2="533.236" y2="178.547" gradientUnits="userSpaceOnUse">
<stop stop-color="#F0784A"/>
<stop offset="1" stop-color="#EA466B"/>
</linearGradient>
<linearGradient id="paint9_linear_162_5187" x1="543.87" y1="152.206" x2="570.704" y2="152.206" gradientUnits="userSpaceOnUse">
<stop stop-color="#F0784A"/>
<stop offset="1" stop-color="#EA466B"/>
</linearGradient>
<linearGradient id="paint10_linear_162_5187" x1="527.89" y1="198.245" x2="557.965" y2="198.245" gradientUnits="userSpaceOnUse">
<stop stop-color="#F0784A"/>
<stop offset="1" stop-color="#EA466B"/>
</linearGradient>
<linearGradient id="paint11_linear_162_5187" x1="532.942" y1="244.49" x2="556.536" y2="244.49" gradientUnits="userSpaceOnUse">
<stop stop-color="#F0784A"/>
<stop offset="1" stop-color="#EA466B"/>
</linearGradient>
<linearGradient id="paint12_linear_162_5187" x1="524.429" y1="291.664" x2="548.009" y2="291.664" gradientUnits="userSpaceOnUse">
<stop stop-color="#F0784A"/>
<stop offset="1" stop-color="#EA466B"/>
</linearGradient>
<linearGradient id="paint13_linear_162_5187" x1="529.923" y1="321.065" x2="548.892" y2="321.065" gradientUnits="userSpaceOnUse">
<stop stop-color="#F0784A"/>
<stop offset="1" stop-color="#EA466B"/>
</linearGradient>
<linearGradient id="paint14_linear_162_5187" x1="489.922" y1="223.599" x2="502.912" y2="223.599" gradientUnits="userSpaceOnUse">
<stop stop-color="#F0784A"/>
<stop offset="1" stop-color="#EA466B"/>
</linearGradient>
<linearGradient id="paint15_linear_162_5187" x1="501.763" y1="246.021" x2="514.753" y2="246.021" gradientUnits="userSpaceOnUse">
<stop stop-color="#F0784A"/>
<stop offset="1" stop-color="#EA466B"/>
</linearGradient>
<linearGradient id="paint16_linear_162_5187" x1="472.808" y1="233.316" x2="493.339" y2="233.316" gradientUnits="userSpaceOnUse">
<stop stop-color="#F0784A"/>
<stop offset="1" stop-color="#EA466B"/>
</linearGradient>
<linearGradient id="paint17_linear_162_5187" x1="485.724" y1="260.657" x2="508.199" y2="260.657" gradientUnits="userSpaceOnUse">
<stop stop-color="#F0784A"/>
<stop offset="1" stop-color="#EA466B"/>
</linearGradient>
<linearGradient id="paint18_linear_162_5187" x1="491.954" y1="289.763" x2="510.335" y2="289.763" gradientUnits="userSpaceOnUse">
<stop stop-color="#F0784A"/>
<stop offset="1" stop-color="#EA466B"/>
</linearGradient>
<linearGradient id="paint19_linear_162_5187" x1="510.335" y1="293.989" x2="521.808" y2="293.989" gradientUnits="userSpaceOnUse">
<stop stop-color="#F0784A"/>
<stop offset="1" stop-color="#EA466B"/>
</linearGradient>
<linearGradient id="paint20_linear_162_5187" x1="520.394" y1="327.454" x2="537.64" y2="327.454" gradientUnits="userSpaceOnUse">
<stop stop-color="#F0784A"/>
<stop offset="1" stop-color="#EA466B"/>
</linearGradient>
<linearGradient id="paint21_linear_162_5187" x1="502.426" y1="318.429" x2="520.791" y2="318.429" gradientUnits="userSpaceOnUse">
<stop stop-color="#F0784A"/>
<stop offset="1" stop-color="#EA466B"/>
</linearGradient>
<linearGradient id="paint22_linear_162_5187" x1="505.548" y1="337.216" x2="519.525" y2="337.216" gradientUnits="userSpaceOnUse">
<stop stop-color="#F0784A"/>
<stop offset="1" stop-color="#EA466B"/>
</linearGradient>
<linearGradient id="paint23_linear_162_5187" x1="324.071" y1="194.166" x2="431.04" y2="194.166" gradientUnits="userSpaceOnUse">
<stop stop-color="#F0784A"/>
<stop offset="1" stop-color="#EA466B"/>
</linearGradient>
<linearGradient id="paint24_linear_162_5187" x1="402.63" y1="91.3701" x2="467.315" y2="91.3701" gradientUnits="userSpaceOnUse">
<stop stop-color="#F0784A"/>
<stop offset="1" stop-color="#EA466B"/>
</linearGradient>
<linearGradient id="paint25_linear_162_5187" x1="145.217" y1="328.499" x2="335.633" y2="328.499" gradientUnits="userSpaceOnUse">
<stop stop-color="#F0784A"/>
<stop offset="1" stop-color="#EA466B"/>
</linearGradient>
<linearGradient id="paint26_linear_162_5187" x1="416.268" y1="555.514" x2="485.769" y2="555.514" gradientUnits="userSpaceOnUse">
<stop stop-color="#F0784A"/>
<stop offset="1" stop-color="#EA466B"/>
</linearGradient>
<linearGradient id="paint27_linear_162_5187" x1="470.864" y1="544.722" x2="554.533" y2="544.722" gradientUnits="userSpaceOnUse">
<stop stop-color="#F0784A"/>
<stop offset="1" stop-color="#EA466B"/>
</linearGradient>
<clipPath id="clip0_162_5187">
<rect width="631" height="620" fill="white"/>
</clipPath>
</defs>
</svg>
